<svg width="1203" height="1432" viewBox="0 0 1203 1432" fill="none" xmlns="http://www.w3.org/2000/svg">
	<g opacity="0.1">
	<path d="M1028.09 177.75C791.888 -59.2499 410.278 -59.2499 177.155 177.75C120.999 233.758 76.4461 300.296 46.047 373.551C15.6478 446.805 0 525.338 0 604.65C0 683.962 15.6478 762.494 46.047 835.749C76.4461 909.004 120.999 975.541 177.155 1031.55L572.741 1419.93C580.385 1427.41 590.656 1431.6 601.353 1431.6C612.05 1431.6 622.322 1427.41 629.965 1419.93L1025.06 1034.58C1261.26 797.581 1261.26 414.749 1028.09 177.75ZM601.377 1149.36C296.324 1149.36 53.1931 902.045 53.1931 601.361C53.1931 296.261 300.458 53.1306 601.377 53.1306C902.295 53.1306 1149.42 296.261 1149.42 601.361C1149.42 906.461 902.06 1149.36 601.377 1149.36Z" fill="black"/>
	<path d="M491.551 563.773C510.038 567.391 520.962 564.008 535.644 554.377C567.873 536.242 583.377 478.478 589.25 462.081L658.689 486.982C680.535 494.851 698.436 493.747 712.295 483.834C734.588 467.743 735.645 459.333 735.786 457.994C735.861 456.031 735.319 454.094 734.236 452.454C733.154 450.815 731.584 449.557 729.749 448.856L543.748 381.719C534.947 378.6 525.604 377.297 516.286 377.891C506.967 378.484 497.865 380.961 489.531 385.172L480.135 389.87C473.873 393.086 467.008 394.957 459.981 395.361C452.954 395.766 445.92 394.696 439.331 392.219L423.357 386.229C422.611 385.747 421.825 385.331 421.008 384.984L325.823 351.087C324.678 350.679 323.463 350.51 322.25 350.591C321.038 350.672 319.856 351 318.776 351.557C316.625 352.678 315.005 354.603 314.265 356.913L234.561 600.866C233.776 603.198 233.919 605.744 234.96 607.974C236.001 610.204 237.86 611.949 240.151 612.846L335.478 647.049C336.421 647.479 337.448 647.695 338.484 647.683C339.848 647.682 341.191 647.36 342.407 646.743C344.557 645.622 346.178 643.697 346.918 641.387L385.466 525.154L491.551 563.773Z" fill="black"/>
	<path d="M335.607 647.189C336.753 647.591 337.968 647.756 339.179 647.675C340.39 647.594 341.572 647.269 342.654 646.72C344.822 645.608 346.461 643.682 347.212 641.364L427.785 397.058C428.582 394.72 428.442 392.164 427.395 389.926C426.349 387.688 424.476 385.942 422.171 385.054L326.046 350.805C325.131 350.392 324.137 350.183 323.133 350.194C322.137 350.158 321.143 350.301 320.197 350.617C318.868 351.104 317.667 351.886 316.683 352.903C315.698 353.92 314.956 355.146 314.512 356.49L233.633 601.359C232.885 603.575 233.025 605.996 234.024 608.112C235.022 610.227 236.802 611.874 238.989 612.705L335.607 647.189Z" fill="#E9041E"/>
	<path d="M968.562 588.423L859.776 357.249C858.754 355.069 856.914 353.381 854.655 352.551C853.527 352.159 852.333 351.999 851.142 352.08C849.951 352.161 848.789 352.481 847.725 353.02L757.261 399.345C755.086 400.517 753.438 402.473 752.653 404.816C751.867 407.159 752.003 409.713 753.033 411.959L858.46 637.307L823.083 671.181C793.279 699.871 759.429 724.034 722.612 742.899L549.273 831.577C546.924 832.809 544.34 833.53 541.692 833.692C539.044 833.854 536.392 833.453 533.91 832.517C528.781 830.616 524.61 826.766 522.305 821.805C519.982 816.794 519.661 811.085 521.407 805.845C523.154 800.605 526.836 796.23 531.702 793.616L628.531 743.98C630.707 742.808 632.355 740.851 633.14 738.508C633.925 736.165 633.789 733.611 632.76 731.365C632.272 730.272 631.57 729.289 630.695 728.472C629.82 727.656 628.791 727.023 627.667 726.611C626.544 726.199 625.349 726.017 624.154 726.075C622.959 726.133 621.787 726.43 620.709 726.949L525.97 775.504L478.236 799.935C475.843 801.129 473.233 801.826 470.563 801.986C467.894 802.146 465.219 801.765 462.7 800.865C460.182 799.966 457.871 798.567 455.906 796.752C453.942 794.937 452.365 792.743 451.269 790.304C448.94 785.316 448.593 779.63 450.299 774.397C452.004 769.163 455.634 764.773 460.454 762.115L599.614 690.89C601.789 689.718 603.437 687.762 604.223 685.419C605.008 683.076 604.872 680.522 603.842 678.276C603.352 677.185 602.648 676.204 601.773 675.39C600.897 674.576 599.867 673.945 598.744 673.536C597.621 673.126 596.427 672.946 595.233 673.006C594.038 673.065 592.868 673.363 591.791 673.883L488.619 726.643L452.49 745.084L435.459 753.752C433.068 754.946 430.459 755.645 427.79 755.807C425.122 755.968 422.448 755.589 419.929 754.692C417.411 753.794 415.1 752.398 413.134 750.585C411.169 748.773 409.59 746.582 408.492 744.144C406.148 739.156 405.796 733.462 407.507 728.224C409.218 722.985 412.864 718.597 417.7 715.955L434.849 707.122L559.351 643.298C561.526 642.126 563.172 640.168 563.954 637.824C564.735 635.48 564.593 632.926 563.555 630.683C563.065 629.593 562.361 628.611 561.486 627.796C560.611 626.982 559.582 626.35 558.459 625.939C557.337 625.527 556.143 625.344 554.949 625.401C553.755 625.457 552.584 625.751 551.505 626.267L471.706 667.141L427.073 689.998C424.724 691.23 422.14 691.95 419.492 692.112C416.844 692.274 414.192 691.874 411.71 690.937C406.59 689.021 402.425 685.176 400.106 680.225C397.715 675.185 397.395 669.408 399.213 664.134C400.924 658.917 404.597 654.57 409.455 652.013L475.582 618.115C477.756 616.948 479.402 614.995 480.183 612.654C480.965 610.314 480.823 607.763 479.787 605.524C479.301 604.429 478.601 603.444 477.727 602.625C476.852 601.807 475.822 601.173 474.698 600.761C473.574 600.349 472.378 600.167 471.182 600.227C469.986 600.286 468.814 600.586 467.736 601.108L401.703 635.076C392.429 639.874 385.435 648.152 382.253 658.097C378.929 668.133 379.576 679.061 384.061 688.635C387.464 696.014 393.102 702.137 400.176 706.136C394.436 712.158 390.648 719.773 389.306 727.983C387.965 736.194 389.134 744.619 392.659 752.154C395.644 758.777 400.466 764.405 406.554 768.369C412.641 772.333 419.739 774.467 427.003 774.518C428.647 774.518 430.315 774.377 431.959 774.212C430.679 782.397 431.83 790.778 435.272 798.314C438.255 804.94 443.077 810.57 449.164 814.538C455.251 818.506 462.349 820.645 469.615 820.701C475.438 820.705 481.176 819.303 486.341 816.613L502.784 808.086C501.986 815.5 503.289 822.989 506.543 829.698C508.686 834.368 511.733 838.567 515.506 842.055C519.28 845.542 523.706 848.248 528.53 850.018C532.544 851.444 536.768 852.19 541.028 852.226C546.85 852.2 552.582 850.791 557.753 848.115L731.093 759.39C769.472 739.72 804.742 714.502 835.768 684.548L875.092 646.727L964.357 601.014C966.527 599.843 968.169 597.889 968.95 595.55C969.731 593.211 969.592 590.663 968.562 588.423Z" fill="black"/>
	</g>
</svg>
