<svg width="1203" height="1433" viewBox="0 0 1203 1433" fill="none" xmlns="http://www.w3.org/2000/svg">
	<g opacity="0.1">
		<path d="M1028.5 178.661C792.297 -58.339 410.686 -58.339 177.561 178.661C121.406 234.67 76.8526 301.208 46.4533 374.463C16.0541 447.718 0.40625 526.251 0.40625 605.563C0.40625 684.875 16.0541 763.408 46.4533 836.663C76.8526 909.918 121.406 976.456 177.561 1032.46L573.149 1420.84C580.793 1428.32 591.064 1432.52 601.761 1432.52C612.459 1432.52 622.73 1428.32 630.373 1420.84L1025.47 1035.49C1261.67 798.494 1261.67 415.662 1028.5 178.661ZM601.785 1150.27C296.731 1150.27 53.5995 902.959 53.5995 602.274C53.5995 297.173 300.865 54.0419 601.785 54.0419C902.704 54.0419 1149.83 297.173 1149.83 602.274C1149.83 907.375 902.469 1150.27 601.785 1150.27Z" fill="black"/>
	</g>
</svg>
