<svg width="53" height="62" viewBox="0 0 53 62" fill="none" xmlns="http://www.w3.org/2000/svg">
<path d="M44.5247 7.69802C34.2952 -2.56601 17.7684 -2.56601 7.67224 7.69802C5.24026 10.1237 3.31074 13.0053 1.99421 16.1778C0.677676 19.3503 0 22.7514 0 26.1863C0 29.6211 0.677676 33.0223 1.99421 36.1948C3.31074 39.3673 5.24026 42.2489 7.67224 44.6746L24.8044 61.4944C25.1354 61.8185 25.5802 62 26.0435 62C26.5068 62 26.9516 61.8185 27.2827 61.4944L44.3934 44.8058C54.6229 34.5418 54.6229 17.962 44.5247 7.69802ZM26.0445 49.7766C12.8333 49.7766 2.3037 39.0659 2.3037 26.0439C2.3037 12.8316 13.0123 2.30099 26.0445 2.30099C39.0768 2.30099 49.7793 12.8305 49.7793 26.0439C49.7793 39.2572 39.0666 49.7766 26.0445 49.7766Z" fill="black"/>
<path d="M40.457 13.9922H11.6263C11.456 13.9925 11.2927 14.0603 11.1723 14.1809C11.052 14.3014 10.9844 14.4648 10.9844 14.6352V34.4734C10.9844 34.6437 11.052 34.807 11.1724 34.9274C11.2928 35.0478 11.4561 35.1154 11.6263 35.1154H40.457C40.5413 35.1155 40.6249 35.099 40.7029 35.0668C40.7809 35.0346 40.8518 34.9874 40.9115 34.9277C40.9713 34.8681 41.0186 34.7973 41.051 34.7193C41.0833 34.6414 41.0999 34.5578 41.0999 34.4734V14.6352C41.0999 14.4646 41.0322 14.3011 40.9116 14.1805C40.791 14.0599 40.6275 13.9922 40.457 13.9922ZM39.1497 32.7429C39.1497 32.9135 39.0819 33.077 38.9613 33.1976C38.8408 33.3182 38.6772 33.3859 38.5067 33.3859H13.5817C13.4973 33.3859 13.4137 33.3693 13.3358 33.3369C13.2578 33.3046 13.187 33.2572 13.1274 33.1975C13.0678 33.1378 13.0205 33.0669 12.9883 32.9889C12.9561 32.9109 12.9396 32.8273 12.9397 32.7429V16.3636C12.9396 16.2793 12.9561 16.1958 12.9883 16.1178C13.0205 16.0399 13.0678 15.969 13.1274 15.9094C13.1871 15.8498 13.2579 15.8025 13.3358 15.7703C13.4138 15.7381 13.4973 15.7215 13.5817 15.7217H38.5067C38.5911 15.7215 38.6747 15.7381 38.7527 15.7703C38.8307 15.8025 38.9016 15.8497 38.9613 15.9093C39.021 15.969 39.0684 16.0398 39.1007 16.1177C39.133 16.1957 39.1497 16.2792 39.1497 16.3636V32.7429Z" fill="black"/>
<path fill-rule="evenodd" clip-rule="evenodd" d="M16.0762 37.9316H36.005V38.2368H16.0762V37.9316Z" fill="black"/>
<path d="M31.7592 24.5507L21.6224 30.4188C21.4909 30.4949 21.3417 30.5351 21.1897 30.5352C21.0378 30.5354 20.8885 30.4955 20.7569 30.4195C20.6253 30.3436 20.516 30.2344 20.44 30.1028C20.3641 29.9712 20.3241 29.8219 20.3242 29.67V19.4365C20.3241 19.2846 20.3641 19.1353 20.44 19.0037C20.516 18.8721 20.6253 18.7629 20.7569 18.687C20.8885 18.6111 21.0378 18.5712 21.1897 18.5713C21.3417 18.5714 21.4909 18.6116 21.6224 18.6877L31.7592 24.5507Z" fill="#EE2327"/>
</svg>
