<svg width="53" height="62" viewBox="0 0 53 62" fill="none" xmlns="http://www.w3.org/2000/svg">
<path d="M44.5247 7.69802C34.2952 -2.56601 17.7684 -2.56601 7.67224 7.69802C5.24026 10.1237 3.31074 13.0053 1.99421 16.1778C0.677676 19.3503 0 22.7514 0 26.1863C0 29.6211 0.677676 33.0223 1.99421 36.1948C3.31074 39.3673 5.24026 42.2489 7.67224 44.6746L24.8044 61.4944C25.1354 61.8185 25.5802 62 26.0435 62C26.5068 62 26.9516 61.8185 27.2827 61.4944L44.3934 44.8058C54.6229 34.5418 54.6229 17.962 44.5247 7.69802ZM26.0445 49.7766C12.8333 49.7766 2.3037 39.0659 2.3037 26.0439C2.3037 12.8305 13.0123 2.30099 26.0445 2.30099C39.0768 2.30099 49.7793 12.8305 49.7793 26.0439C49.7793 39.2572 39.0666 49.7766 26.0445 49.7766Z" fill="black"/>
<path fill-rule="evenodd" clip-rule="evenodd" d="M32.1557 12.1717C32.0785 12.1015 31.9766 12.0647 31.8723 12.0695L31.8677 12.0697H11.2293C11.0745 12.0699 10.926 12.1315 10.8166 12.241C10.7071 12.3505 10.6455 12.4989 10.6452 12.6538V39.6383C10.6515 39.7407 10.6976 39.8366 10.7737 39.9056C10.8509 39.9757 10.9527 40.0122 11.0568 40.0073L11.0616 40.0071H31.8678L31.8727 40.0073C31.9768 40.0122 32.0786 39.9757 32.1558 39.9056C32.2319 39.8366 32.2779 39.7407 32.2842 39.6383V12.4395C32.2779 12.3369 32.2318 12.2408 32.1557 12.1717ZM32.4877 12.4339L32.6909 12.4237C32.6803 12.212 32.5863 12.0131 32.4294 11.8705C32.2737 11.729 32.0688 11.6545 31.8587 11.6627L11.2292 11.6627L11.2289 11.6627C10.9663 11.6631 10.7145 11.7675 10.5288 11.9533C10.3431 12.139 10.2386 12.3907 10.2383 12.6534L10.2383 39.649L10.2385 39.654C10.2491 39.8657 10.3432 40.0646 10.5002 40.207C10.656 40.3483 10.8609 40.4226 11.0709 40.414H31.8586C32.0685 40.4226 32.2735 40.3483 32.4292 40.207C32.5862 40.0646 32.6803 39.8657 32.6909 39.654L32.6912 39.649V12.4339H32.4877Z" fill="black"/>
<path d="M30.7936 14.9365H12.1924C12.111 14.9365 12.0449 15.0026 12.0449 15.084V15.4187C12.0449 15.5002 12.111 15.5663 12.1924 15.5663H30.7936C30.8751 15.5663 30.9412 15.5002 30.9412 15.4187V15.084C30.9412 15.0026 30.8751 14.9365 30.7936 14.9365Z" fill="black"/>
<path d="M28.2981 17.5557H12.1924C12.111 17.5557 12.0449 17.6217 12.0449 17.7032V18.0379C12.0449 18.1194 12.111 18.1854 12.1924 18.1854H28.2981C28.3796 18.1854 28.4456 18.1194 28.4456 18.0379V17.7032C28.4456 17.6217 28.3796 17.5557 28.2981 17.5557Z" fill="black"/>
<path d="M28.2981 20.1758H12.1924C12.111 20.1758 12.0449 20.2418 12.0449 20.3233V20.658C12.0449 20.7395 12.111 20.8055 12.1924 20.8055H28.2981C28.3796 20.8055 28.4456 20.7395 28.4456 20.658V20.3233C28.4456 20.2418 28.3796 20.1758 28.2981 20.1758Z" fill="black"/>
<path d="M28.2981 23.0293H12.1924C12.111 23.0293 12.0449 23.0953 12.0449 23.1768V23.5115C12.0449 23.593 12.111 23.659 12.1924 23.659H28.2981C28.3796 23.659 28.4456 23.593 28.4456 23.5115V23.1768C28.4456 23.0953 28.3796 23.0293 28.2981 23.0293Z" fill="black"/>
<path d="M28.2981 25.6494H12.1924C12.111 25.6494 12.0449 25.7155 12.0449 25.7969V26.1316C12.0449 26.2131 12.111 26.2792 12.1924 26.2792H28.2981C28.3796 26.2792 28.4456 26.2131 28.4456 26.1316V25.7969C28.4456 25.7155 28.3796 25.6494 28.2981 25.6494Z" fill="black"/>
<path d="M28.2981 28.2871H12.1924C12.111 28.2871 12.0449 28.3532 12.0449 28.4346V28.7693C12.0449 28.8508 12.111 28.9168 12.1924 28.9168H28.2981C28.3796 28.9168 28.4456 28.8508 28.4456 28.7693V28.4346C28.4456 28.3532 28.3796 28.2871 28.2981 28.2871Z" fill="black"/>
<path d="M21.3994 30.9062H12.1924C12.111 30.9062 12.0449 30.9723 12.0449 31.0538V31.3885C12.0449 31.4699 12.111 31.536 12.1924 31.536H21.3994C21.4809 31.536 21.547 31.4699 21.547 31.3885V31.0538C21.547 30.9723 21.4809 30.9062 21.3994 30.9062Z" fill="black"/>
<path d="M24.7988 32.962C24.7988 31.4125 26.0563 31.5438 27.6057 31.5438H37.4312C38.9807 31.5438 40.2381 31.4125 40.2381 32.962" fill="#000006"/>
<path d="M23.3984 32.9297H41.6395V37.1405H23.3984V32.9297Z" fill="#EE2327"/>
<path d="M23.3984 34.333H41.6395V37.1399H23.3984V34.333Z" fill="#000006"/>
<path d="M33.0823 17.7686H31.953C31.6691 17.7691 31.3887 17.8311 31.131 17.9502C30.8732 18.0693 30.6443 18.2427 30.4599 18.4586C30.2755 18.6745 30.14 18.9278 30.0627 19.2009C29.9854 19.4741 29.9681 19.7608 30.0119 20.0413L31.7943 31.5373H33.2491L35.0275 20.0413C35.0712 19.7605 35.0537 19.4735 34.976 19.2001C34.8984 18.9267 34.7625 18.6734 34.5777 18.4575C34.3929 18.2415 34.1636 18.0682 33.9054 17.9492C33.6473 17.8303 33.3665 17.7687 33.0823 17.7686Z" fill="#000006"/>
</svg>
