<svg width="53" height="62" viewBox="0 0 53 62" fill="none" xmlns="http://www.w3.org/2000/svg">
<path d="M44.5247 7.69802C34.2952 -2.56601 17.7684 -2.56601 7.67224 7.69802C5.24026 10.1237 3.31074 13.0053 1.99421 16.1778C0.677676 19.3503 0 22.7514 0 26.1863C0 29.6211 0.677676 33.0223 1.99421 36.1948C3.31074 39.3673 5.24026 42.2489 7.67224 44.6746L24.8044 61.4944C25.1354 61.8185 25.5802 62 26.0435 62C26.5068 62 26.9516 61.8185 27.2827 61.4944L44.3934 44.8058C54.6229 34.5418 54.6229 17.962 44.5247 7.69802ZM26.0445 49.7766C12.8333 49.7766 2.3037 39.0659 2.3037 26.0439C2.3037 12.8305 13.0123 2.30099 26.0445 2.30099C39.0768 2.30099 49.7793 12.8305 49.7793 26.0439C49.7793 39.2572 39.0666 49.7766 26.0445 49.7766Z" fill="black"/>
<path fill-rule="evenodd" clip-rule="evenodd" d="M13.0226 16.9541L16.4731 40.3235V40.3347C16.4731 40.4101 16.5136 40.4904 16.6024 40.557C16.6912 40.6236 16.8209 40.6694 16.9706 40.6694H31.7221C31.8718 40.6694 32.0014 40.6236 32.0902 40.557C32.1791 40.4904 32.2196 40.4101 32.2196 40.3347V40.3235L35.67 16.9541L35.972 16.9987L32.5247 40.3469C32.5204 40.5347 32.4168 40.6936 32.2734 40.8012C32.127 40.911 31.9316 40.9746 31.7221 40.9746H16.9706C16.7611 40.9746 16.5657 40.911 16.4193 40.8012C16.2759 40.6936 16.1723 40.5347 16.168 40.3469L12.7207 16.9987L13.0226 16.9541Z" fill="black"/>
<path d="M35.8197 13.6885H12.8652V16.0141H35.8197V13.6885Z" fill="black"/>
<path d="M33.6569 10.9814H15.0293V13.3071H33.6569V10.9814Z" fill="black"/>
<path d="M37.221 31.8426C36.7925 30.7417 36.0416 29.7959 35.0665 29.1291C34.0914 28.4623 32.9376 28.1055 31.7563 28.1055C30.575 28.1055 29.4213 28.4623 28.4462 29.1291C27.4711 29.7959 26.7201 30.7417 26.2916 31.8426C25.7089 31.924 25.179 32.224 24.8094 32.6818C24.4398 33.1396 24.2581 33.7208 24.3012 34.3075C24.3442 34.8943 24.6089 35.4427 25.0415 35.8416C25.474 36.2404 26.0421 36.4598 26.6304 36.4552H36.8843C37.4724 36.4593 38.0401 36.2395 38.4722 35.8405C38.9044 35.4415 39.1686 34.8931 39.2115 34.3065C39.2543 33.7199 39.0725 33.139 38.7029 32.6814C38.3332 32.2239 37.8035 31.924 37.221 31.8426Z" fill="#EE2327"/>
<path d="M31.7924 28.9572C32.5644 28.9572 33.1902 28.3346 33.1902 27.5665C33.1902 26.7984 32.5644 26.1758 31.7924 26.1758C31.0204 26.1758 30.3945 26.7984 30.3945 27.5665C30.3945 28.3346 31.0204 28.9572 31.7924 28.9572Z" fill="black"/>
<path d="M36.4302 41.0961H27.1571L26.2832 36.459H37.3041L36.4302 41.0961Z" fill="black"/>
<path d="M29.9866 41.0961H29.4657L28.543 36.459H29.1625L29.9866 41.0961Z" fill="#999999"/>
<path d="M32.102 36.459H31.4824V41.0961H32.102V36.459Z" fill="#999999"/>
<path d="M33.6035 41.0961H34.1254L35.0482 36.459H34.4286L33.6035 41.0961Z" fill="#999999"/>
</svg>
