<svg width="53" height="62" viewBox="0 0 53 62" fill="none" xmlns="http://www.w3.org/2000/svg">
<path d="M44.5247 7.69802C34.2952 -2.56601 17.7684 -2.56601 7.67224 7.69802C5.24026 10.1237 3.31074 13.0053 1.99421 16.1778C0.677676 19.3503 0 22.7514 0 26.1863C0 29.6211 0.677676 33.0223 1.99421 36.1948C3.31074 39.3673 5.24026 42.2489 7.67224 44.6746L24.8044 61.4944C25.1354 61.8185 25.5802 62 26.0435 62C26.5068 62 26.9516 61.8185 27.2826 61.4944L44.3934 44.8058C54.6229 34.5418 54.6229 17.962 44.5247 7.69802ZM26.0445 49.7766C12.8333 49.7766 2.3037 39.0659 2.3037 26.0439C2.3037 12.8305 13.0123 2.30099 26.0445 2.30099C39.0768 2.30099 49.7793 12.8305 49.7793 26.0439C49.7793 39.2572 39.0666 49.7766 26.0445 49.7766Z" fill="black"/>
<path fill-rule="evenodd" clip-rule="evenodd" d="M11.873 21.0283H14.1784V21.4353H12.28V28.0206H14.1784V28.4275H11.873V21.0283Z" fill="black"/>
<path d="M14.2105 31.589V35.3868C14.2048 35.6114 14.2885 35.8291 14.4432 35.992C14.5979 36.1549 14.811 36.2497 15.0356 36.2556H37.048C37.1593 36.2528 37.2689 36.2281 37.3707 36.183C37.4725 36.1378 37.5643 36.073 37.641 35.9923C37.7178 35.9117 37.7778 35.8167 37.8178 35.7127C37.8578 35.6088 37.8769 35.4981 37.8741 35.3868V13.8597C37.8795 13.635 37.7956 13.4173 37.6407 13.2544C37.4859 13.0915 37.2727 12.9967 37.048 12.9909H15.0356C14.8111 12.997 14.5982 13.0919 14.4435 13.2548C14.2888 13.4176 14.2051 13.6352 14.2105 13.8597V17.863H12.0609V12.004C12.0543 11.7386 12.1534 11.4814 12.3363 11.2889C12.5192 11.0965 12.7711 10.9845 13.0365 10.9775H39.0481C39.3134 10.9847 39.5651 11.0968 39.748 11.2892C39.9309 11.4816 40.03 11.7387 40.0237 12.004V37.4378C40.0303 37.7032 39.9312 37.9604 39.7483 38.1529C39.5654 38.3453 39.3135 38.4573 39.0481 38.4643H36.0876V40.3016C36.0925 40.5051 36.0166 40.7022 35.8764 40.8498C35.7363 40.9974 35.5433 41.0834 35.3398 41.089H32.6022C32.3987 41.0834 32.2057 40.9974 32.0656 40.8498C31.9254 40.7022 31.8495 40.5051 31.8544 40.3016V38.4714H20.2292V40.3087C20.2341 40.5122 20.1582 40.7093 20.018 40.8569C19.8778 41.0045 19.6849 41.0905 19.4814 41.0961H16.7448C16.5413 41.0905 16.3483 41.0045 16.2082 40.8569C16.068 40.7093 15.9921 40.5122 15.997 40.3087V38.4714H13.0365C12.905 38.4681 12.7755 38.4389 12.6553 38.3855C12.5351 38.3321 12.4266 38.2556 12.336 38.1603C12.2454 38.065 12.1745 37.9527 12.1273 37.83C12.0801 37.7072 12.0575 37.5763 12.0609 37.4449V31.59H14.2105V31.589Z" fill="black"/>
<path d="M22.914 21.4727H20.6707C20.5117 21.4727 20.3828 21.6016 20.3828 21.7606V24.0038C20.3828 24.1628 20.5117 24.2917 20.6707 24.2917H22.914C23.073 24.2917 23.2019 24.1628 23.2019 24.0038V21.7606C23.2019 21.6016 23.073 21.4727 22.914 21.4727Z" fill="black"/>
<path d="M27.1444 21.4727H24.9012C24.7422 21.4727 24.6133 21.6016 24.6133 21.7606V24.0038C24.6133 24.1628 24.7422 24.2917 24.9012 24.2917H27.1444C27.3035 24.2917 27.4324 24.1628 27.4324 24.0038V21.7606C27.4324 21.6016 27.3035 21.4727 27.1444 21.4727Z" fill="black"/>
<path d="M31.373 21.4727H29.1297C28.9707 21.4727 28.8418 21.6016 28.8418 21.7606V24.0038C28.8418 24.1628 28.9707 24.2917 29.1297 24.2917H31.373C31.532 24.2917 31.6609 24.1628 31.6609 24.0038V21.7606C31.6609 21.6016 31.532 21.4727 31.373 21.4727Z" fill="black"/>
<path d="M22.914 25.7021H20.6707C20.5117 25.7021 20.3828 25.8311 20.3828 25.9901V28.2333C20.3828 28.3923 20.5117 28.5212 20.6707 28.5212H22.914C23.073 28.5212 23.2019 28.3923 23.2019 28.2333V25.9901C23.2019 25.8311 23.073 25.7021 22.914 25.7021Z" fill="black"/>
<path d="M31.4129 17.2432H20.6707C20.5117 17.2432 20.3828 17.3721 20.3828 17.5311V19.7743C20.3828 19.9333 20.5117 20.0622 20.6707 20.0622H31.4129C31.5719 20.0622 31.7008 19.9333 31.7008 19.7743V17.5311C31.7008 17.3721 31.5719 17.2432 31.4129 17.2432Z" fill="#EE2327"/>
<path d="M27.1444 25.7021H24.9012C24.7422 25.7021 24.6133 25.8311 24.6133 25.9901V28.2333C24.6133 28.3923 24.7422 28.5212 24.9012 28.5212H27.1444C27.3035 28.5212 27.4324 28.3923 27.4324 28.2333V25.9901C27.4324 25.8311 27.3035 25.7021 27.1444 25.7021Z" fill="black"/>
<path d="M31.373 25.7021H29.1297C28.9707 25.7021 28.8418 25.8311 28.8418 25.9901V28.2333C28.8418 28.3923 28.9707 28.5212 29.1297 28.5212H31.373C31.532 28.5212 31.6609 28.3923 31.6609 28.2333V25.9901C31.6609 25.8311 31.532 25.7021 31.373 25.7021Z" fill="black"/>
<path d="M22.914 29.9316H20.6707C20.5117 29.9316 20.3828 30.0605 20.3828 30.2196V32.4628C20.3828 32.6218 20.5117 32.7507 20.6707 32.7507H22.914C23.073 32.7507 23.2019 32.6218 23.2019 32.4628V30.2196C23.2019 30.0605 23.073 29.9316 22.914 29.9316Z" fill="black"/>
<path d="M27.1444 29.9316H24.9012C24.7422 29.9316 24.6133 30.0605 24.6133 30.2196V32.4628C24.6133 32.6218 24.7422 32.7507 24.9012 32.7507H27.1444C27.3035 32.7507 27.4324 32.6218 27.4324 32.4628V30.2196C27.4324 30.0605 27.3035 29.9316 27.1444 29.9316Z" fill="black"/>
<path d="M31.373 29.9316H29.1297C28.9707 29.9316 28.8418 30.0605 28.8418 30.2196V32.4628C28.8418 32.6218 28.9707 32.7507 29.1297 32.7507H31.373C31.532 32.7507 31.6609 32.6218 31.6609 32.4628V30.2196C31.6609 30.0605 31.532 29.9316 31.373 29.9316Z" fill="black"/>
</svg>
