<svg width="53" height="62" viewBox="0 0 53 62" fill="none" xmlns="http://www.w3.org/2000/svg">
<path d="M44.5247 7.69802C34.2952 -2.56601 17.7684 -2.56601 7.67224 7.69802C5.24026 10.1237 3.31074 13.0053 1.99421 16.1778C0.677676 19.3503 0 22.7514 0 26.1863C0 29.6211 0.677676 33.0223 1.99421 36.1948C3.31074 39.3673 5.24026 42.2489 7.67224 44.6746L24.8044 61.4944C25.1354 61.8185 25.5802 62 26.0435 62C26.5068 62 26.9516 61.8185 27.2827 61.4944L44.3934 44.8058C54.6229 34.5418 54.6229 17.962 44.5247 7.69802ZM26.0445 49.7766C12.8333 49.7766 2.3037 39.0659 2.3037 26.0439C2.3037 12.8305 13.0123 2.30099 26.0445 2.30099C39.0768 2.30099 49.7793 12.8305 49.7793 26.0439C49.7793 39.2572 39.0666 49.7766 26.0445 49.7766Z" fill="black"/>
<path d="M36.6359 32.8749L35.6236 32.3663L26.2101 27.6712C26.1629 27.6469 26.1106 27.6343 26.0575 27.6343C26.0044 27.6343 25.9521 27.6469 25.9049 27.6712L16.4975 32.3703L15.4801 32.879C15.4093 32.9166 15.3276 32.9284 15.2489 32.9126C15.1703 32.8967 15.0996 32.8541 15.0489 32.7919C14.9982 32.7298 14.9705 32.652 14.9707 32.5718C14.9709 32.4916 14.9988 32.4139 15.0498 32.352L15.3204 32.0051L23.3992 21.6861L25.7909 18.6341C25.8235 18.5938 25.8646 18.5612 25.9113 18.5388C25.9581 18.5165 26.0092 18.5049 26.0611 18.5049C26.1129 18.5049 26.164 18.5165 26.2108 18.5388C26.2575 18.5612 26.2986 18.5938 26.3312 18.6341L28.7229 21.6861L36.7987 32.0082L37.0693 32.3551C37.1162 32.4174 37.1407 32.4937 37.1389 32.5717C37.1371 32.6497 37.109 32.7248 37.0593 32.7849C37.0095 32.8449 36.941 32.8865 36.8647 32.9029C36.7885 32.9192 36.7089 32.9094 36.6389 32.8749H36.6359Z" fill="#EE2327"/>
<path d="M23.3998 21.6865L15.321 32.0085C12.1255 30.92 10.1152 29.34 10.1152 27.5861C10.1446 27.1275 10.2733 26.6807 10.4923 26.2767C10.7114 25.8727 11.0156 25.5211 11.3839 25.2462C13.4776 23.3987 17.9692 22.0334 23.3998 21.6865Z" fill="black"/>
<path d="M35.6183 32.3688C32.4993 33.1979 29.2824 33.6014 26.0553 33.5683C22.8281 33.6014 19.6112 33.1979 16.4922 32.3688L25.9067 27.6717C25.9539 27.6474 26.0063 27.6348 26.0593 27.6348C26.1124 27.6348 26.1647 27.6474 26.2119 27.6717L35.6183 32.3688Z" fill="black"/>
<path d="M42.0022 27.5861C42.0022 29.34 39.9919 30.92 36.7964 32.0085L28.7207 21.6865C30.763 21.8032 32.7907 22.1039 34.779 22.5848C37.3997 23.2298 39.472 24.1516 40.7132 25.2472C41.0853 25.5201 41.3933 25.8708 41.6159 26.2749C41.8386 26.6791 41.9704 27.1269 42.0022 27.5871V27.5861Z" fill="black"/>
</svg>
