<svg width="53" height="62" viewBox="0 0 53 62" fill="none" xmlns="http://www.w3.org/2000/svg">
<path d="M44.5247 7.69802C34.2952 -2.56601 17.7684 -2.56601 7.67224 7.69802C5.24026 10.1237 3.31074 13.0053 1.99421 16.1778C0.677676 19.3503 0 22.7514 0 26.1863C0 29.6211 0.677676 33.0223 1.99421 36.1948C3.31074 39.3673 5.24026 42.2489 7.67224 44.6746L24.8044 61.4944C25.1354 61.8185 25.5802 62 26.0435 62C26.5068 62 26.9516 61.8185 27.2827 61.4944L44.3934 44.8058C54.6229 34.5418 54.6229 17.962 44.5247 7.69802ZM26.0445 49.7766C12.8333 49.7766 2.3037 39.0659 2.3037 26.0439C2.3037 12.8316 13.0123 2.30099 26.0445 2.30099C39.0768 2.30099 49.7793 12.8305 49.7793 26.0439C49.7793 39.2572 39.0666 49.7766 26.0445 49.7766Z" fill="black"/>
<path d="M31.7423 23.5314C31.7484 23.2903 31.5052 23.1458 31.3058 23.0939C30.3984 22.862 28.3555 22.334 28.3555 22.334L27.3677 23.0939L26.3839 22.334C26.3839 22.334 24.4326 22.8274 23.4336 23.0939C23.2352 23.1468 22.9921 23.2903 22.9982 23.5314L23.1864 31.7414C23.192 31.8618 23.2372 31.9769 23.315 32.0689C23.3928 32.1609 23.4989 32.2246 23.6167 32.2501H31.1207C31.2386 32.2248 31.3449 32.1612 31.423 32.0692C31.501 31.9772 31.5464 31.8619 31.552 31.7414L31.7423 23.5314Z" fill="black"/>
<path d="M29.7441 19.0175C29.7441 20.455 28.681 21.6209 27.3686 21.6209C26.0563 21.6209 24.9941 20.455 24.9941 19.0175C24.9941 17.58 26.0573 16.4131 27.3686 16.4131C28.68 16.4131 29.7441 17.579 29.7441 19.0175Z" fill="#000006"/>
<path d="M20.9638 25.128C20.9709 24.834 20.6738 24.6559 20.4297 24.5939L16.8211 23.665L15.6196 24.5939L14.4161 23.665C14.4161 23.665 12.0315 24.2673 10.8086 24.5939C10.5655 24.658 10.2684 24.834 10.2755 25.128L10.5065 35.156C10.5123 35.304 10.5672 35.4458 10.6624 35.5592C10.7575 35.6726 10.8877 35.7512 11.0324 35.7827H20.2048C20.3497 35.7514 20.4801 35.6729 20.5755 35.5595C20.6709 35.446 20.7259 35.3041 20.7318 35.156L20.9638 25.128Z" fill="#EE2327"/>
<path d="M18.5218 19.612C18.5218 21.369 17.2226 22.7943 15.6193 22.7943C14.016 22.7943 12.7168 21.369 12.7168 19.612C12.7168 17.855 14.016 16.4287 15.6203 16.4287C17.2247 16.4287 18.5228 17.853 18.5228 19.612" fill="#000006"/>
<path d="M42.1613 22.6208C42.1674 22.4061 41.9507 22.2769 41.7737 22.2322L39.15 21.5566L38.275 22.2322L37.4001 21.5566C37.4001 21.5566 35.6706 21.9951 34.7764 22.2322C34.5994 22.279 34.3837 22.4061 34.3888 22.6208L34.5566 29.9101C34.5607 30.0179 34.6005 30.1212 34.6697 30.2039C34.739 30.2866 34.8338 30.3439 34.9391 30.3669H41.6099C41.7155 30.3441 41.8105 30.2869 41.8799 30.2042C41.9494 30.1215 41.9893 30.018 41.9934 29.9101L42.1613 22.6208Z" fill="black"/>
<path d="M40.389 18.6074C40.389 19.8862 39.4439 20.9219 38.277 20.9219C37.1101 20.9219 36.166 19.8862 36.166 18.6074C36.166 17.3286 37.1111 16.293 38.277 16.293C39.4429 16.293 40.389 17.3296 40.389 18.6074Z" fill="#000006"/>
</svg>
