<svg width="53" height="62" viewBox="0 0 53 62" fill="none" xmlns="http://www.w3.org/2000/svg">
<path d="M44.5247 7.69802C34.2952 -2.56601 17.7684 -2.56601 7.67224 7.69802C5.24026 10.1237 3.31074 13.0053 1.99421 16.1778C0.677676 19.3503 0 22.7514 0 26.1863C0 29.6211 0.677676 33.0223 1.99421 36.1948C3.31074 39.3673 5.24026 42.2489 7.67224 44.6746L24.8044 61.4944C25.1354 61.8185 25.5802 62 26.0435 62C26.5068 62 26.9516 61.8185 27.2827 61.4944L44.3934 44.8058C54.6229 34.5418 54.6229 17.962 44.5247 7.69802ZM26.0445 49.7766C12.8333 49.7766 2.3037 39.0659 2.3037 26.0439C2.3037 12.8305 13.0123 2.30099 26.0445 2.30099C39.0768 2.30099 49.7793 12.8305 49.7793 26.0439C49.7793 39.2572 39.0666 49.7766 26.0445 49.7766Z" fill="black"/>
<path d="M17.7545 21.7956C17.698 21.7955 17.6421 21.7842 17.5899 21.7625C17.5377 21.7407 17.4904 21.7089 17.4505 21.6689C17.4106 21.6288 17.3791 21.5813 17.3575 21.529C17.336 21.4768 17.325 21.4208 17.3252 21.3643V18.8351C17.3252 18.6625 17.2568 18.497 17.1349 18.3747C17.013 18.2525 16.8477 18.1836 16.6751 18.183H12.3005C12.1861 18.183 12.0764 18.1376 11.9955 18.0567C11.9146 17.9758 11.8691 17.8661 11.8691 17.7517C11.8691 17.6373 11.9146 17.5275 11.9955 17.4467C12.0764 17.3658 12.1861 17.3203 12.3005 17.3203H16.6751C17.0761 17.3214 17.4602 17.4815 17.7433 17.7655C18.0263 18.0495 18.1851 18.4342 18.1848 18.8351V21.3643C18.185 21.4209 18.1739 21.4769 18.1524 21.5293C18.1308 21.5816 18.0991 21.6292 18.0592 21.6692C18.0192 21.7093 17.9717 21.7411 17.9194 21.7628C17.8671 21.7845 17.8111 21.7956 17.7545 21.7956Z" fill="#000006"/>
<path d="M29.4481 11.8831C29.2446 11.8557 27.7715 11.7112 27.7715 13.1619V21.318H38.2736C37.7435 16.5589 34.1045 12.6309 29.4481 11.8831Z" fill="#000006"/>
<path d="M39.4146 22.6169C39.4146 22.7588 39.3867 22.8993 39.3324 23.0304C39.2781 23.1614 39.1985 23.2805 39.0982 23.3809C38.9978 23.4812 38.8787 23.5608 38.7477 23.6151C38.6166 23.6694 38.4761 23.6973 38.3342 23.6973H17.3402C17.1983 23.6973 17.0578 23.6694 16.9267 23.6151C16.7956 23.5608 16.6765 23.4812 16.5762 23.3809C16.4759 23.2805 16.3963 23.1614 16.342 23.0304C16.2877 22.8993 16.2598 22.7588 16.2598 22.6169V22.4378C16.2598 22.296 16.2877 22.1555 16.342 22.0244C16.3963 21.8933 16.4759 21.7742 16.5762 21.6739C16.6765 21.5735 16.7956 21.494 16.9267 21.4397C17.0578 21.3854 17.1983 21.3574 17.3402 21.3574H38.3342C38.4761 21.3574 38.6166 21.3854 38.7477 21.4397C38.8787 21.494 38.9978 21.5735 39.0982 21.6739C39.1985 21.7742 39.2781 21.8933 39.3324 22.0244C39.3867 22.1555 39.4146 22.296 39.4146 22.4378V22.6169Z" fill="#EE2327"/>
<path d="M20.8046 29.3354C21.773 29.3352 22.7246 29.5887 23.5646 30.0706C24.4046 30.5525 25.1037 31.2461 25.5922 32.0823H30.0828C30.822 30.8186 32.031 29.8986 33.4459 29.5229C34.8609 29.1473 36.367 29.3465 37.6356 30.0771C38.0538 29.4055 38.2751 28.63 38.2745 27.8389V23.6973H17.3965V27.8338C17.3957 28.6251 17.6175 29.4007 18.0364 30.072C18.878 29.5866 19.8331 29.3325 20.8046 29.3354Z" fill="#000006"/>
<path fill-rule="evenodd" clip-rule="evenodd" d="M20.8327 29.7302C17.9947 29.7302 15.694 32.0308 15.694 34.8688C15.694 37.7068 17.9947 40.0074 20.8327 40.0074C23.6707 40.0074 25.9713 37.7068 25.9713 34.8688C25.9713 32.0308 23.6707 29.7302 20.8327 29.7302ZM15.2871 34.8688C15.2871 31.8061 17.7699 29.3232 20.8327 29.3232C23.8954 29.3232 26.3782 31.8061 26.3782 34.8688C26.3782 37.9315 23.8954 40.4144 20.8327 40.4144C17.7699 40.4144 15.2871 37.9315 15.2871 34.8688Z" fill="black"/>
<path fill-rule="evenodd" clip-rule="evenodd" d="M34.8717 29.7302C32.0338 29.7302 29.7331 32.0308 29.7331 34.8688C29.7331 37.7068 32.0338 40.0074 34.8717 40.0074C37.7097 40.0074 40.0104 37.7068 40.0104 34.8688C40.0104 32.0308 37.7097 29.7302 34.8717 29.7302ZM29.3262 34.8688C29.3262 31.8061 31.809 29.3232 34.8717 29.3232C37.9345 29.3232 40.4173 31.8061 40.4173 34.8688C40.4173 37.9315 37.9345 40.4144 34.8717 40.4144C31.809 40.4144 29.3262 37.9315 29.3262 34.8688Z" fill="black"/>
</svg>
