<svg width="53" height="62" viewBox="0 0 53 62" fill="none" xmlns="http://www.w3.org/2000/svg">
<path d="M44.5247 7.69802C34.2952 -2.56601 17.7684 -2.56601 7.67224 7.69802C5.24026 10.1237 3.31074 13.0053 1.99421 16.1778C0.677676 19.3503 0 22.7514 0 26.1863C0 29.6211 0.677676 33.0223 1.99421 36.1948C3.31074 39.3673 5.24026 42.2489 7.67224 44.6746L24.8044 61.4944C25.1354 61.8185 25.5802 62 26.0435 62C26.5068 62 26.9516 61.8185 27.2827 61.4944L44.3934 44.8058C54.6229 34.5418 54.6229 17.962 44.5247 7.69802ZM26.0445 49.7766C12.8333 49.7766 2.3037 39.0659 2.3037 26.0439C2.3037 12.8305 13.0123 2.30099 26.0445 2.30099C39.0768 2.30099 49.7793 12.8305 49.7793 26.0439C49.7793 39.2572 39.0666 49.7766 26.0445 49.7766Z" fill="black"/>
<path d="M33.1523 10.9815C32.5431 10.9811 31.9452 11.1458 31.4222 11.458C30.8991 11.7702 30.4704 12.2183 30.1816 12.7547C31.034 13.317 31.7631 14.0468 32.3245 14.8998C32.8859 15.7528 33.2679 16.711 33.4473 17.7163C34.3148 17.6423 35.1201 17.2359 35.6948 16.5819C36.2695 15.9279 36.5691 15.0771 36.531 14.2073C36.4929 13.3376 36.12 12.5162 35.4903 11.915C34.8606 11.3138 34.0229 10.9793 33.1523 10.9815Z" fill="black"/>
<path fill-rule="evenodd" clip-rule="evenodd" d="M20.8903 24.2354L21.0109 24.3495C22.3619 25.6289 24.1496 26.3453 26.0101 26.3531C27.8707 26.3608 29.6643 25.6592 31.0258 24.3911L31.1645 24.54L31.287 24.3775C31.5705 24.5912 31.8005 24.8678 31.9588 25.1856C32.1171 25.5034 32.1994 25.8536 32.1992 26.2086L31.9957 26.2085H32.1992V26.2086V30.4731L32.0205 30.4951C30.6428 30.664 29.5361 31.8403 28.9838 33.4426C28.4335 35.039 28.456 37.0067 29.2932 38.6668L29.442 38.9619H22.8278L22.9762 38.667C23.8351 36.9606 23.8312 34.9152 23.2267 33.2893C22.62 31.6575 21.4362 30.5062 19.9765 30.4752L19.7773 30.4709V26.2085C19.7773 26.2085 19.7773 26.2085 19.7773 26.2085C19.7772 25.84 19.8659 25.4769 20.0359 25.15C20.206 24.8231 20.4524 24.542 20.7543 24.3306L20.8903 24.2354ZM31.1711 24.8091C29.751 26.0718 27.913 26.7679 26.0085 26.76C24.1023 26.7521 22.2686 26.0395 20.8585 24.763C20.6687 24.922 20.5117 25.1172 20.3969 25.3378C20.2571 25.6067 20.1841 25.9053 20.1843 26.2083L20.1843 30.0786C21.7804 30.2102 22.9963 31.5017 23.6081 33.1475C24.2132 34.7748 24.2525 36.8007 23.4789 38.555H28.7903C28.0372 36.8525 28.0493 34.905 28.5991 33.31C29.1569 31.6916 30.2891 30.3882 31.7922 30.1181V26.2083C31.7924 25.9164 31.7247 25.6284 31.5945 25.367C31.4893 25.1558 31.3455 24.9666 31.1711 24.8091Z" fill="black"/>
<path d="M38.9417 29.7669L33.5782 24.6731C33.3302 24.437 33.0372 24.2534 32.7166 24.1333C32.396 24.0132 32.0544 23.9591 31.7124 23.9741C31.5394 24.1776 31.2352 24.3607 31.043 24.5398C31.3013 24.7345 31.5109 24.9866 31.6551 25.2761C31.7994 25.5656 31.8743 25.8848 31.8741 26.2082V30.3244L31.9586 30.4048C32.0481 30.3967 32.1376 30.3906 32.2282 30.3906C33.9505 30.3906 35.5346 31.7904 36.0697 33.9086C36.617 34.1739 37.2412 34.235 37.8295 34.0807C38.4179 33.9264 38.9317 33.5668 39.2784 33.067C39.625 32.5671 39.7815 31.9599 39.7198 31.3547C39.6581 30.7496 39.3821 30.1865 38.9417 29.7669Z" fill="black"/>
<path d="M20.0421 30.3906H20.1042V26.2082C20.104 25.8725 20.1848 25.5416 20.3398 25.2437C20.4948 24.9458 20.7193 24.6897 20.9944 24.4971L21.0046 24.5072C20.8255 24.3373 20.5335 24.1603 20.3718 23.9741C20.0297 23.9591 19.6882 24.0132 19.3676 24.1333C19.047 24.2534 18.7539 24.437 18.5059 24.6731L13.1405 29.7669C12.6823 30.2007 12.4013 30.7888 12.3517 31.4178C12.302 32.0467 12.4873 32.6716 12.8718 33.1719C13.2562 33.6721 13.8124 34.012 14.4329 34.1259C15.0534 34.2398 15.6941 34.1196 16.2312 33.7885C16.7866 31.7335 18.3513 30.3906 20.0421 30.3906Z" fill="black"/>
<path d="M19.9196 41.0962C22.094 41.0962 23.8567 38.6725 23.8567 35.6828C23.8567 32.6932 22.094 30.2695 19.9196 30.2695C17.7451 30.2695 15.9824 32.6932 15.9824 35.6828C15.9824 38.6725 17.7451 41.0962 19.9196 41.0962Z" fill="#EE2327"/>
<path d="M32.3512 41.0962C34.5256 41.0962 36.2883 38.6725 36.2883 35.6828C36.2883 32.6932 34.5256 30.2695 32.3512 30.2695C30.1768 30.2695 28.4141 32.6932 28.4141 35.6828C28.4141 38.6725 30.1768 41.0962 32.3512 41.0962Z" fill="#EE2327"/>
<path fill-rule="evenodd" clip-rule="evenodd" d="M21.7361 12.5848C23.0118 11.733 24.5115 11.2787 26.0455 11.2793L26.0454 11.4828L26.0457 11.2793C28.1012 11.2826 30.0715 12.1008 31.5246 13.5545C32.9777 15.0083 33.7951 16.9789 33.7976 19.0343V19.0345C33.7976 20.5685 33.3427 22.068 32.4904 23.3435C31.6381 24.6189 30.4267 25.6129 29.0094 26.1998C27.5922 26.7866 26.0327 26.94 24.5282 26.6405C23.0238 26.3411 21.6419 25.6021 20.5575 24.5172C19.473 23.4323 18.7346 22.0502 18.4357 20.5456C18.1369 19.041 18.2909 17.4816 18.8783 16.0646C19.4658 14.6475 20.4603 13.4365 21.7361 12.5848ZM26.0452 11.6862C24.5918 11.6857 23.1708 12.1161 21.962 12.9232C20.7532 13.7303 19.8109 14.8777 19.2543 16.2204C18.6976 17.5631 18.5517 19.0407 18.8349 20.4663C19.1181 21.8919 19.8177 23.2016 20.8453 24.2295C21.8728 25.2575 23.1822 25.9577 24.6077 26.2414C26.0332 26.5252 27.5108 26.3799 28.8537 25.8238C30.1966 25.2677 31.3445 24.3258 32.152 23.1174C32.9596 21.9089 33.3906 20.4882 33.3907 19.0348C33.3883 17.0871 32.6137 15.2198 31.2368 13.8422C29.8598 12.4647 27.9929 11.6894 26.0452 11.6862Z" fill="black"/>
<path d="M21.8238 12.8062C21.5526 12.2812 21.1484 11.8367 20.6514 11.517C20.1545 11.1973 19.5823 11.0137 18.9921 10.9846C18.4019 10.9554 17.8145 11.0818 17.2884 11.351C16.7624 11.6201 16.3163 12.0227 15.9947 12.5184C15.6731 13.0142 15.4873 13.5856 15.4559 14.1757C15.4245 14.7657 15.5486 15.3537 15.8158 15.8807C16.0829 16.4078 16.4838 16.8554 16.9783 17.1789C17.4728 17.5024 18.0435 17.6904 18.6334 17.7241C18.8093 16.7327 19.1823 15.7866 19.7303 14.9419C20.2783 14.0971 20.9902 13.3709 21.8238 12.8062Z" fill="black"/>
</svg>
