<svg width="53" height="62" viewBox="0 0 53 62" fill="none" xmlns="http://www.w3.org/2000/svg">
<path d="M44.5247 7.69802C34.2952 -2.56601 17.7684 -2.56601 7.67224 7.69802C5.24026 10.1237 3.31074 13.0053 1.99421 16.1778C0.677676 19.3503 0 22.7514 0 26.1863C0 29.6211 0.677676 33.0223 1.99421 36.1948C3.31074 39.3673 5.24026 42.2489 7.67224 44.6746L24.8044 61.4944C25.1354 61.8185 25.5802 62 26.0435 62C26.5068 62 26.9516 61.8185 27.2827 61.4944L44.3934 44.8058C54.6229 34.5418 54.6229 17.962 44.5247 7.69802ZM26.0445 49.7766C12.8333 49.7766 2.3037 39.0659 2.3037 26.0439C2.3037 12.8305 13.0123 2.30099 26.0445 2.30099C39.0768 2.30099 49.7793 12.8305 49.7793 26.0439C49.7793 39.2572 39.0666 49.7766 26.0445 49.7766Z" fill="black"/>
<path d="M21.2882 24.416C22.0888 24.5727 22.5619 24.4262 23.1977 24.0091C24.5935 23.2237 25.265 20.722 25.5193 20.0119L28.5266 21.0903C29.4727 21.4311 30.248 21.3833 30.8482 20.954C31.8137 20.2571 31.8594 19.8929 31.8655 19.8349C31.8688 19.7499 31.8453 19.666 31.7984 19.595C31.7515 19.524 31.6836 19.4695 31.6041 19.4392L23.5487 16.5316C23.1676 16.3965 22.763 16.3401 22.3594 16.3658C21.9558 16.3915 21.5616 16.4988 21.2007 16.6811L20.7937 16.8846C20.5226 17.0239 20.2253 17.1049 19.9209 17.1224C19.6166 17.1399 19.312 17.0936 19.0266 16.9863L18.3348 16.7269C18.3025 16.706 18.2685 16.688 18.2331 16.673L14.1108 15.2049C14.0612 15.1873 14.0086 15.18 13.9561 15.1835C13.9036 15.187 13.8523 15.2012 13.8056 15.2253C13.7125 15.2739 13.6423 15.3572 13.6102 15.4572L10.1584 26.0224C10.1244 26.1234 10.1306 26.2337 10.1757 26.3303C10.2207 26.4269 10.3012 26.5024 10.4005 26.5413L14.5289 28.0225C14.5698 28.0411 14.6142 28.0505 14.6591 28.05C14.7182 28.0499 14.7764 28.036 14.829 28.0093C14.9221 27.9607 14.9923 27.8774 15.0244 27.7773L16.6938 22.7435L21.2882 24.416Z" fill="black"/>
<path d="M14.5345 28.0286C14.5841 28.046 14.6368 28.0531 14.6892 28.0496C14.7417 28.0461 14.7929 28.032 14.8397 28.0082C14.9336 27.9601 15.0046 27.8767 15.0371 27.7763L18.5266 17.1959C18.5611 17.0946 18.555 16.9839 18.5097 16.887C18.4644 16.7901 18.3833 16.7145 18.2835 16.676L14.1205 15.1927C14.0808 15.1748 14.0378 15.1658 13.9943 15.1663C13.9512 15.1647 13.9081 15.1709 13.8672 15.1846C13.8096 15.2057 13.7576 15.2395 13.715 15.2836C13.6723 15.3276 13.6402 15.3807 13.621 15.4389L10.1182 26.0437C10.0858 26.1397 10.0919 26.2446 10.1351 26.3362C10.1784 26.4278 10.2555 26.4991 10.3502 26.5351L14.5345 28.0286Z" fill="#E9041E"/>
<path d="M41.9476 25.4835L37.2363 15.4718C37.192 15.3774 37.1123 15.3043 37.0145 15.2683C36.9657 15.2514 36.9139 15.2445 36.8624 15.248C36.8108 15.2514 36.7605 15.2653 36.7144 15.2887L32.7966 17.2949C32.7024 17.3457 32.631 17.4304 32.597 17.5318C32.563 17.6333 32.5689 17.7439 32.6135 17.8412L37.1793 27.6006L35.6472 29.0677C34.3564 30.3101 32.8904 31.3566 31.296 32.1736L23.789 36.0141C23.6872 36.0675 23.5753 36.0987 23.4607 36.1057C23.346 36.1127 23.2311 36.0954 23.1236 36.0548C22.9015 35.9725 22.7209 35.8057 22.6211 35.5909C22.5204 35.3739 22.5065 35.1266 22.5822 34.8997C22.6578 34.6728 22.8173 34.4833 23.028 34.3701L27.2215 32.2204C27.3157 32.1697 27.3871 32.0849 27.4211 31.9835C27.4551 31.882 27.4492 31.7714 27.4046 31.6741C27.3835 31.6268 27.3531 31.5842 27.3152 31.5488C27.2773 31.5135 27.2327 31.486 27.1841 31.4682C27.1354 31.4504 27.0837 31.4425 27.0319 31.445C26.9802 31.4475 26.9294 31.4604 26.8827 31.4828L22.7798 33.5857L20.7125 34.6437C20.6089 34.6954 20.4958 34.7257 20.3802 34.7326C20.2646 34.7395 20.1488 34.723 20.0397 34.684C19.9306 34.6451 19.8305 34.5845 19.7454 34.5059C19.6604 34.4273 19.5921 34.3323 19.5446 34.2266C19.4438 34.0106 19.4287 33.7644 19.5026 33.5377C19.5764 33.3111 19.7336 33.1209 19.9424 33.0058L25.9692 29.9212C26.0634 29.8705 26.1347 29.7857 26.1688 29.6843C26.2028 29.5828 26.1969 29.4722 26.1523 29.3749C26.1311 29.3277 26.1006 29.2852 26.0627 29.2499C26.0247 29.2147 25.9801 29.1874 25.9315 29.1696C25.8828 29.1519 25.8311 29.1441 25.7794 29.1467C25.7277 29.1492 25.677 29.1622 25.6304 29.1846L21.1622 31.4696L19.5975 32.2682L18.8599 32.6436C18.7563 32.6954 18.6434 32.7256 18.5278 32.7326C18.4122 32.7396 18.2964 32.7232 18.1873 32.6843C18.0783 32.6455 17.9782 32.585 17.8931 32.5065C17.8079 32.428 17.7396 32.3331 17.692 32.2275C17.5905 32.0115 17.5752 31.7649 17.6493 31.5381C17.7235 31.3112 17.8814 31.1211 18.0908 31.0067L18.8335 30.6242L24.2254 27.8601C24.3196 27.8093 24.3909 27.7245 24.4248 27.623C24.4586 27.5215 24.4525 27.4109 24.4075 27.3137C24.3863 27.2665 24.3558 27.224 24.3179 27.1887C24.28 27.1534 24.2355 27.1261 24.1868 27.1083C24.1382 27.0905 24.0865 27.0825 24.0348 27.085C23.9831 27.0874 23.9324 27.1002 23.8856 27.1225L20.4297 28.8927L18.4967 29.8825C18.395 29.9359 18.2831 29.9671 18.1684 29.9741C18.0537 29.9811 17.9389 29.9638 17.8314 29.9232C17.6097 29.8403 17.4292 29.6737 17.3288 29.4593C17.2253 29.241 17.2114 28.9909 17.2902 28.7624C17.3642 28.5365 17.5233 28.3482 17.7337 28.2375L20.5976 26.7695C20.6917 26.7189 20.763 26.6343 20.7968 26.533C20.8307 26.4316 20.8245 26.3211 20.7797 26.2242C20.7586 26.1768 20.7283 26.1341 20.6904 26.0986C20.6526 26.0632 20.608 26.0357 20.5593 26.0179C20.5106 26 20.4588 25.9922 20.407 25.9947C20.3552 25.9973 20.3044 26.0103 20.2578 26.0329L17.398 27.504C16.9964 27.7118 16.6935 28.0703 16.5556 28.501C16.4117 28.9356 16.4397 29.4089 16.634 29.8235C16.7813 30.1431 17.0255 30.4083 17.3319 30.5815C17.0833 30.8423 16.9192 31.1721 16.8611 31.5277C16.803 31.8832 16.8536 32.2481 17.0063 32.5745C17.1356 32.8613 17.3444 33.105 17.6081 33.2767C17.8717 33.4483 18.1791 33.5408 18.4937 33.543C18.5649 33.543 18.6371 33.5369 18.7083 33.5297C18.6529 33.8842 18.7028 34.2472 18.8518 34.5735C18.981 34.8605 19.1898 35.1043 19.4534 35.2762C19.7171 35.448 20.0245 35.5407 20.3392 35.5431C20.5913 35.5433 20.8398 35.4825 21.0635 35.3661L21.7756 34.9968C21.7411 35.3178 21.7975 35.6422 21.9384 35.9327C22.0313 36.135 22.1632 36.3168 22.3266 36.4679C22.49 36.6189 22.6817 36.7361 22.8907 36.8127C23.0645 36.8745 23.2474 36.9068 23.4319 36.9084C23.684 36.9072 23.9323 36.8462 24.1562 36.7303L31.6633 32.8878C33.3254 32.0359 34.8529 30.9438 36.1966 29.6465L37.8996 28.0086L41.7655 26.0288C41.8595 25.9781 41.9306 25.8935 41.9644 25.7922C41.9983 25.6909 41.9923 25.5806 41.9476 25.4835Z" fill="black"/>
</svg>
