<svg width="53" height="62" viewBox="0 0 53 62" fill="none" xmlns="http://www.w3.org/2000/svg">
<path d="M44.5247 7.69802C34.2952 -2.56601 17.7684 -2.56601 7.67224 7.69802C5.24026 10.1237 3.31074 13.0053 1.99421 16.1778C0.677676 19.3503 0 22.7514 0 26.1863C0 29.6211 0.677676 33.0223 1.99421 36.1948C3.31074 39.3673 5.24026 42.2489 7.67224 44.6746L24.8044 61.4944C25.1354 61.8185 25.5802 62 26.0435 62C26.5068 62 26.9516 61.8185 27.2826 61.4944L44.3934 44.8058C54.6229 34.5418 54.6229 17.962 44.5247 7.69802ZM26.0445 49.7766C12.8333 49.7766 2.3037 39.0659 2.3037 26.0439C2.3037 12.8316 13.0123 2.30099 26.0445 2.30099C39.0768 2.30099 49.7793 12.8305 49.7793 26.0439C49.7793 39.2572 39.0666 49.7766 26.0445 49.7766Z" fill="black"/>
<path d="M29.0831 15.0065C28.1014 15.9883 26.5814 16.0585 25.6852 15.1622C24.7889 14.2659 24.8601 12.747 25.8418 11.7653C26.8236 10.7835 28.3435 10.7133 29.2388 11.6086C30.134 12.5038 30.0648 14.0258 29.0831 15.0065Z" fill="#000006"/>
<path d="M30.2729 27.5089C30.63 26.869 29.8283 26.4437 29.8283 26.4437L27.1435 24.7895C26.9106 24.6674 26.3042 24.0031 25.7844 24.7214C25.3856 25.171 25.4842 25.6451 25.9461 26.0042L27.5108 27.1549C27.526 27.1639 27.5391 27.176 27.5492 27.1904C27.5593 27.2049 27.5662 27.2213 27.5695 27.2386C27.5728 27.2559 27.5723 27.2738 27.5682 27.2909C27.564 27.308 27.5562 27.3241 27.5454 27.338L26.4985 28.6402C26.4432 28.7099 26.3932 28.7837 26.349 28.861C25.6267 30.5843 26.9075 31.3392 27.3389 31.4176C27.4341 31.4413 27.5317 31.4543 27.6298 31.4562C28.1761 31.4827 30.1376 31.4562 31.9719 31.4562C34.1307 31.4562 34.0788 30.2883 34.0788 30.2883V26.6126C34.0788 26.5485 34.0167 25.8109 33.1479 25.8109C32.5375 25.8109 32.4897 26.3135 32.4887 26.5058C32.4814 26.5911 32.4797 26.6767 32.4836 26.7622V28.1865C32.4807 28.2231 32.4635 28.2571 32.4357 28.2811C32.4079 28.3051 32.3717 28.3172 32.3351 28.3146H29.7134C29.632 28.3146 29.6116 28.2719 29.6645 28.219C29.8791 27.9926 30.0821 27.7556 30.2729 27.5089Z" fill="black"/>
<path d="M36.5292 31.4403C37.4968 31.4403 38.2811 30.6833 38.2811 29.7494C38.2811 28.8156 37.4968 28.0586 36.5292 28.0586C35.5617 28.0586 34.7773 28.8156 34.7773 29.7494C34.7773 30.6833 35.5617 31.4403 36.5292 31.4403Z" fill="black"/>
<path d="M37.5153 33.0012C37.5153 32.6898 37.2193 32.4365 36.853 32.4365H26.883C26.5168 32.4365 26.2207 32.6888 26.2207 33.0012C26.2207 33.3135 26.5168 33.5658 26.883 33.5658H36.853C37.2193 33.5658 37.5153 33.3125 37.5153 33.0012Z" fill="#E9041E"/>
<path d="M14.126 31.8509H16.4812C16.5259 31.8507 16.569 31.8674 16.602 31.8975C16.6349 31.9277 16.6554 31.9691 16.6592 32.0137L17.5036 40.9338C17.5077 40.9782 17.5282 41.0195 17.5611 41.0496C17.594 41.0797 17.637 41.0965 17.6816 41.0965H20.5241C20.5692 41.0965 20.6125 41.0795 20.6457 41.049C20.6788 41.0185 20.6993 40.9766 20.7032 40.9317L21.456 32.0147C21.4598 31.9699 21.4804 31.9282 21.5136 31.8978C21.5467 31.8675 21.5901 31.8507 21.6351 31.8509H23.975C24.0369 31.8551 24.0989 31.8439 24.1554 31.8183C24.2119 31.7928 24.2613 31.7536 24.299 31.7044C24.3368 31.6551 24.3618 31.5973 24.3718 31.5361C24.3818 31.4749 24.3766 31.4121 24.3565 31.3534L22.5497 23.1037C22.5181 22.9597 22.5303 22.8095 22.5846 22.6725C22.639 22.5354 22.7331 22.4178 22.8549 22.3346L26.1704 20.2663C26.1963 20.2503 26.2259 20.2412 26.2563 20.2397C26.2867 20.2382 26.317 20.2445 26.3443 20.2579C26.3717 20.2713 26.3951 20.2914 26.4126 20.3164C26.43 20.3414 26.4409 20.3703 26.4441 20.4006L26.6679 22.6693C26.6704 22.6936 26.6779 22.7171 26.6898 22.7384C26.7017 22.7598 26.7178 22.7785 26.7371 22.7934L30.547 25.4691C30.6981 25.5857 30.8878 25.6406 31.0778 25.6226C31.2678 25.6047 31.4439 25.5152 31.5705 25.3724L31.6173 25.3195C31.6851 25.2432 31.7366 25.1538 31.7688 25.0569C31.8009 24.96 31.8131 24.8576 31.8044 24.7559C31.7957 24.6541 31.7665 24.5552 31.7184 24.4652C31.6703 24.3751 31.6044 24.2958 31.5247 24.232L28.197 21.8381C28.1775 21.8234 28.1613 21.8047 28.1494 21.7833C28.1375 21.762 28.1301 21.7384 28.1278 21.714L27.9925 19.1625C27.9795 19.0352 27.9389 18.9123 27.8734 18.8024C27.8548 18.7657 27.8315 18.7315 27.8043 18.7006L27.7931 18.6884L27.7768 18.6701L25.9323 16.3139C25.9256 16.3065 25.9175 16.3005 25.9084 16.2963C25.8993 16.2921 25.8894 16.2898 25.8794 16.2895L25.562 16.2844C25.5438 16.2844 25.5262 16.2773 25.5131 16.2646C25.5 16.2519 25.4924 16.2345 25.4918 16.2163L25.4745 15.8205C25.4734 15.8042 25.4674 15.7886 25.4572 15.7758L23.683 14.4664C23.6435 14.4161 23.5928 14.3758 23.5348 14.3487C23.4769 14.3217 23.4134 14.3087 23.3495 14.3108C23.2856 14.3128 23.223 14.33 23.167 14.3607C23.1109 14.3915 23.0629 14.435 23.0268 14.4878L17.9899 21.0426C17.7864 21.3125 17.6015 21.596 17.4365 21.891C17.4321 21.8985 17.4284 21.9064 17.4253 21.9144L13.8554 31.3982C13.7211 31.6474 13.8432 31.8509 14.126 31.8509Z" fill="black"/>
</svg>
