<svg width="53" height="62" viewBox="0 0 53 62" fill="none" xmlns="http://www.w3.org/2000/svg">
<path d="M44.5247 7.69802C34.2952 -2.56601 17.7684 -2.56601 7.67224 7.69802C5.24026 10.1237 3.31074 13.0053 1.99421 16.1778C0.677676 19.3503 0 22.7514 0 26.1863C0 29.6211 0.677676 33.0223 1.99421 36.1948C3.31074 39.3673 5.24026 42.2489 7.67224 44.6746L24.8044 61.4944C25.1354 61.8185 25.5802 62 26.0435 62C26.5068 62 26.9516 61.8185 27.2827 61.4944L44.3934 44.8058C54.6229 34.5418 54.6229 17.962 44.5247 7.69802ZM26.0445 49.7766C12.8333 49.7766 2.3037 39.0659 2.3037 26.0439C2.3037 12.8316 13.0123 2.30099 26.0445 2.30099C39.0768 2.30099 49.7793 12.8305 49.7793 26.0439C49.7793 39.2572 39.0666 49.7766 26.0445 49.7766Z" fill="black"/>
<path d="M23.2269 18.5155C23.234 18.2377 22.9542 18.0699 22.7233 18.0068L19.3182 17.1309L18.1828 18.0068L17.0475 17.1309C17.0475 17.1309 14.7981 17.6996 13.6434 18.0068C13.4135 18.0678 13.1348 18.2337 13.1348 18.5155L13.3535 27.9768C13.3588 28.1167 13.4105 28.2509 13.5004 28.3582C13.5902 28.4656 13.7132 28.54 13.85 28.5699L14.9212 28.7581C15.0638 28.7907 15.1942 28.8629 15.2975 28.9664C15.4009 29.0699 15.4728 29.2005 15.5052 29.3431L15.9569 40.596C15.9855 40.733 16.0594 40.8564 16.1666 40.9465C16.2737 41.0365 16.4081 41.0879 16.548 41.0925H19.8035C19.9434 41.0881 20.0778 41.0367 20.1851 40.9467C20.2923 40.8566 20.3661 40.7331 20.3946 40.596L20.8554 29.3472C20.8879 29.2046 20.9599 29.0741 21.0632 28.9706C21.1665 28.8672 21.2969 28.7949 21.4394 28.7622L22.5117 28.574C22.6485 28.5443 22.7716 28.4699 22.8615 28.3625C22.9514 28.2551 23.003 28.1208 23.0081 27.9809L23.2269 18.5155Z" fill="black"/>
<path d="M20.463 13.479C20.463 14.8575 19.4456 15.9756 18.1851 15.9756C16.9246 15.9756 15.9062 14.8565 15.9062 13.479C15.9062 12.1015 16.9236 10.9814 18.1851 10.9814C19.4466 10.9814 20.463 12.1005 20.463 13.479Z" fill="#000006"/>
<path d="M35.2406 13.4831C35.2406 14.8657 34.2233 15.9848 32.9587 15.9848C31.6941 15.9848 30.6758 14.8657 30.6758 13.4831C30.6758 12.1005 31.6931 10.9814 32.9587 10.9814C34.2243 10.9814 35.2406 12.1005 35.2406 13.4831Z" fill="#000006"/>
<path d="M31.0528 17.0592C30.7985 17.1233 30.4994 17.2871 30.4506 17.5679L28.3141 31.6073C28.291 31.7413 28.3218 31.879 28.3997 31.9905C28.4776 32.1019 28.5964 32.1781 28.7302 32.2024L30.1189 32.5188C30.2643 32.5513 30.3975 32.6244 30.503 32.7296C30.6086 32.8347 30.6821 32.9677 30.7151 33.113L31.3662 40.5915C31.3951 40.7315 31.4701 40.8578 31.5793 40.95C31.6886 41.0422 31.8256 41.0951 31.9685 41.1002H33.9482C34.0913 41.0953 34.2285 41.0426 34.338 40.9503C34.4474 40.858 34.5226 40.7317 34.5515 40.5915L35.2016 33.1099C35.2344 32.9647 35.3077 32.8318 35.4131 32.7266C35.5184 32.6214 35.6515 32.5483 35.7967 32.5158L37.1864 32.1994C37.3203 32.1751 37.4392 32.0989 37.5173 31.9875C37.5954 31.8761 37.6264 31.7384 37.6036 31.6042L35.4671 17.5648C35.4193 17.2871 35.1192 17.1253 34.8659 17.0561C34.4142 16.9391 33.8984 16.8161 33.4365 16.7031L32.9604 17.1406L32.4832 16.7031C32.0285 16.8049 31.5208 16.9391 31.059 17.0561L31.0528 17.0592Z" fill="black"/>
<path d="M35.7945 32.5158L37.1842 32.1994C37.3181 32.1751 37.437 32.0989 37.5151 31.9875C37.5932 31.8761 37.6242 31.7384 37.6014 31.6042L35.4649 17.5648C35.4171 17.2871 35.117 17.1253 34.8637 17.0561C34.412 16.9391 33.8962 16.8161 33.4343 16.7031L32.9582 17.1406L32.481 16.7031C32.0263 16.8049 31.5186 16.9391 31.0568 17.0561C30.8024 17.1202 30.5033 17.284 30.4545 17.5648L28.3181 31.6042C28.2949 31.7382 28.3257 31.876 28.4036 31.9874C28.4815 32.0989 28.6003 32.1751 28.7341 32.1994L30.1228 32.5158" fill="#E9041E"/>
</svg>
