<svg width="53" height="62" viewBox="0 0 53 62" fill="none" xmlns="http://www.w3.org/2000/svg">
<path d="M44.5247 7.69802C34.2952 -2.56601 17.7684 -2.56601 7.67224 7.69802C5.24026 10.1237 3.31074 13.0053 1.99421 16.1778C0.677676 19.3503 0 22.7514 0 26.1863C0 29.6211 0.677676 33.0223 1.99421 36.1948C3.31074 39.3673 5.24026 42.2489 7.67224 44.6746L24.8044 61.4944C25.1354 61.8185 25.5802 62 26.0435 62C26.5068 62 26.9516 61.8185 27.2827 61.4944L44.3934 44.8058C54.6229 34.5418 54.6229 17.962 44.5247 7.69802ZM26.0445 49.7766C12.8333 49.7766 2.3037 39.0659 2.3037 26.0439C2.3037 12.8316 13.0123 2.30099 26.0445 2.30099C39.0768 2.30099 49.7793 12.8305 49.7793 26.0439C49.7793 39.2572 39.0666 49.7766 26.0445 49.7766Z" fill="black"/>
<path d="M28.8632 20.3916V40.4059C28.865 40.4949 28.8492 40.5833 28.8167 40.6662C28.7843 40.7491 28.7358 40.8248 28.6742 40.8889C28.6125 40.9531 28.5387 41.0044 28.4572 41.0401C28.3756 41.0757 28.2879 41.095 28.1989 41.0967H23.8813C23.7923 41.095 23.7045 41.0757 23.623 41.0401C23.5414 41.0044 23.4677 40.9531 23.406 40.8889C23.3443 40.8248 23.2958 40.7491 23.2634 40.6662C23.231 40.5833 23.2152 40.4949 23.2169 40.4059V20.3916" fill="black"/>
<path d="M29.8096 14.7447C29.8096 15.4891 29.5889 16.2169 29.1752 16.8359C28.7616 17.4549 28.1738 17.9374 27.4859 18.2223C26.7981 18.5072 26.0413 18.5818 25.3111 18.4365C24.5809 18.2913 23.9102 17.9328 23.3838 17.4063C22.8573 16.8799 22.4988 16.2092 22.3536 15.479C22.2083 14.7488 22.2829 13.992 22.5678 13.3042C22.8527 12.6163 23.3352 12.0285 23.9542 11.6148C24.5732 11.2012 25.301 10.9805 26.0454 10.9805C27.0438 10.9805 28.0012 11.3771 28.7071 12.083C29.413 12.7889 29.8096 13.7463 29.8096 14.7447Z" fill="#EE2327"/>
</svg>
