<svg width="2279"viewBox="0 0 2279 2050" fill="none" xmlns="http://www.w3.org/2000/svg">
<path d="M1192.86 1293.61C1192.86 1293.37 1192.76 1293.14 1192.59 1292.97C1192.42 1292.8 1192.19 1292.71 1191.95 1292.71H1138.2V1321.09H1139.42V1293.91H1191.65V1366.96H1139.42V1339.77H1138.2V1396.54H1139.42V1369.34H1191.65V1442.4H1139.42V1415.29H1138.2V1443.67H1191.95C1191.95 1443.43 1192.05 1443.2 1192.22 1443.03C1192.39 1442.86 1192.62 1442.77 1192.86 1442.77C1193.1 1442.77 1193.33 1442.86 1193.5 1443.03C1193.67 1443.2 1193.77 1443.43 1193.77 1443.67H1247.51V1415.29H1246.3V1442.47H1194.07V1369.42H1246.3V1396.61H1247.51V1339.84H1246.3V1367.03H1194.07V1293.98H1246.3V1321.16H1247.51V1292.78H1193.77C1193.54 1292.78 1193.32 1292.86 1193.15 1293.02C1192.98 1293.17 1192.88 1293.39 1192.86 1293.61V1293.61Z" fill="black"/>
<path d="M1356.95 1293.61C1356.95 1293.49 1356.92 1293.38 1356.88 1293.27C1356.83 1293.16 1356.76 1293.06 1356.68 1292.97C1356.6 1292.89 1356.5 1292.82 1356.39 1292.78C1356.28 1292.73 1356.16 1292.71 1356.04 1292.71H1302.3V1321.09H1303.5V1293.91H1355.74V1366.96H1303.5V1339.77H1302.3V1396.54H1303.5V1369.34H1355.74V1442.4H1303.5V1415.29H1302.3V1443.67H1356.04C1356.04 1443.43 1356.13 1443.2 1356.3 1443.03C1356.47 1442.86 1356.7 1442.77 1356.95 1442.77C1357.19 1442.77 1357.42 1442.86 1357.59 1443.03C1357.76 1443.2 1357.85 1443.43 1357.85 1443.67H1411.59V1415.29H1410.39V1442.47H1358.16V1369.42H1410.39V1396.61H1411.59V1339.84H1410.39V1367.03H1358.16V1293.98H1410.39V1321.16H1411.59V1292.78H1357.85C1357.62 1292.78 1357.4 1292.86 1357.23 1293.02C1357.07 1293.17 1356.96 1293.39 1356.95 1293.61Z" fill="black"/>
<path d="M2050.4 363.292H1851.62V241.727H2020.21V237.958H1847.85V409.283H1851.62V367.068H1949.12V439.473H1847.85V465.382H1851.62V460.848H1869.22V443.249H1949.12V599.601H1869.22V570.799H1851.62V498.584H1847.85V603.378H2054.16V553.5H2050.4V599.601H1952.89V523.31H2054.16V519.541H1952.89V443.249H2050.4V489.351H2054.16V439.473H1952.89V367.068H2050.4V409.283H2054.16V237.958H2050.4V363.292Z" fill="black"/>
<path fill-rule="evenodd" clip-rule="evenodd" d="M447.1 1093.6V1230.58H0.333984V1683.37H181.436V1678.91H184.456L184.755 1509.34L353.565 1508.23V1868.39L266.046 1868.32V2050H665.07V1683.29H2022.43L2278.09 1300.17V0H1580.41V20.1215H1752.34V34.3138H1740.26L1740.2 38.0827H1752.34V182.923H1740.26V186.7H1752.34V191.226H1756.11V180.597H1817.66V176.82H1756.12V20.1215H1857.41V54.5537H1847.85V75.9288H1856.65V176.852H1847.85V198.227H1869.22V176.82H1860.43V75.9288H1869.22V54.5537H1861.17V20.1215H1962.47V176.82H1899.39V180.597H2081.31V176.82H1966.2V20.1215H2120.02V55.6023H2111.49V207.208H2115.26V197.171H2159.48V55.5787H2123.79V20.0979H2261.48V237.398H2111.53V241.175H2261.48V342.46H2115.3V271.365H2111.53V346.229H2261.48V443.998H2115.3V376.419H2111.53V456.322H2261.48V552.585H2115.3V486.481H2111.53V556.323H2261.48V706.659H2115.3V586.544H2111.53V660.731H2028.69V664.508H2042.09V667.519H2045.86V664.515H2100.2V703.757H2045.86V691.686H2042.09V703.757H1988.11V691.686H1984.34V703.757H1929.99V664.515H1984.34V667.527H1988.11V664.515H2001.51V660.731H1889.35V664.508H1914.9V703.749H1862.18V660.731H1847.85V885.813H1856.12V853.904H1860.06V849.615H1857.04V767.764H1919.54V849.567H1892.64V853.904H1954.54V849.008H1923.74V768.364H1940.34V715.836H2009.18V743.007H1972.95V741.493H1972.16V745.27H1972.95V743.764H2009.18V770.934H1972.95V769.42H1972.16V774.703H2009.14V802.102H1997.07V802.89H2009.14V830.25H1982.59V848.968H1978.65V853.644H2027.35L2027.25 830.558H2060.6V825.275H2059.81V826.781H2023.58V799.61H2059.81V801.124H2060.6V797.348H2059.81V798.861H2023.58V771.683H2059.81V773.197H2060.6V769.42H2059.81V770.934H2023.58V743.764H2059.81V745.27H2060.6V741.493H2059.81V743.007H2023.58V715.836H2059.81V717.342H2060.6V715.836H2092.41V825.906H2111.42L2111.47 881.271H2027.3V880.814H2022.47V931.843H1856.1V925.07H1847.83V984.528H1867.54V979.995H2124.95V939.365H2214.61V1013.17H2125.84V1010.15H2118.93V1020.06H2198.76V1069.16H2110.69V1072.94H2198.76V1127.28H2076V1072.94H2080.52V1069.16H2076V1016.19H2067.68V1019.97H2072.21V1098.46H2002.77V1019.97H2037.47V1016.19H1994.44V1019.97H1998.98V1098.46H1929.54V1019.97H1964.23V1016.19H1921.22V1019.97H1925.74V1098.46H1856.37V1019.97H1891.06V1016.19H1849.47V1154.4H1895.59V1150.63H1853.22V1105.34H1925.76V1154.4H1929.53V1105.34H1998.97V1150.63H1959.72V1154.4H2002.74V1105.34H2069.08V1150.63H2032.99V1154.4H2069.13V1167.37H2112.91V1134.16H2205.66V1020.09H2221.53V979.995H2261.48V1130.42H2235.85V1134.19H2261.48V1231.96H2110.5V1244.28H2261.48V1296.36L2136.91 1482.39L2132.4 1479.36L2128.23 1485.56H1952.09V1494.87H1992.78V1642.56H1980.7V1666.67H1869.16V1642.55H1857.16V1625.32H1849.5V1586.07H1857.16V1557.39H1849.5V1518.14H1857.16V1511.48H1869.24V1494.88H1891.76V1485.58H1715.07V1650.25H1701.09V1666.69H1606.57V1490.09H1604.94V1405.5H1659.26V1401.73H1604.92V1327.3H1659.26V1325.73H1603.4V1490.06H1525.3V1493.84H1585.22V1511.48H1602.82V1642.57H1585.22V1666.67H1493.61V1490.09H1418.59V1493.87H1489.84V1666.66H1388.4V1490.09H1384.63V1666.66H1343.91V1642.55H1322.54V1666.66H1283.9V1493.9H1322.49V1511.48H1343.86V1493.88H1354.39V1490.11H1280.12V1666.64H1177.59V1493.87H1249.97V1490.09H1111.45V1493.87H1175.18V1666.66H1081.26V1642.55H1072.54V1511.48H1081.26V1490.11H1059.88V1511.48H1070.13V1642.57H1059.88V1666.67H967.477V1493.86H1029.69V1490.08H939.628V1493.86H965.056V1666.66H842.758V1493.87H909.43V1490.09H691.815V1493.87H797.232V1511.48H839.021V1642.57H797.232V1666.67H659.906V1623.05H661.617V1440.27H543.876V1397.22H534.564V1511.47H543.623L543.584 1623.05H487.879V1626.82H543.584V1715.69H555.474V1760.35H543.584V1793.75H555.458V1838.87H543.584V1872.67H555.458V1918.52H543.584V2029.85H370.178V2015.36H366.551V2019.19H358.666V2026.73H368.546V2029.89H298.372L299.208 1939.35H365.636V1982.19H370.17V1927.88H366.543V1935.77H298.309V1885.01L366.551 1885.05V1903.77H370.178V1626.82H427.53V1623.05H370.178V1527.77H381.476V1490.03L60.8326 1489.99V1493.93H167.851V1662.31H164.831V1666.75H25.4071V1663.93H30.6424V1642.56H18.5711V1511.48H30.6424V1490.11H22.2296V1248.84H84.4076V1266.18H88.1765V1248.84H156.449V1300.91H88.1765V1296.38H84.4076V1342.47H88.1765V1304.68H156.449V1419.51H88.1765V1381.72H84.4076V1423.28H160.187V1304.66H215.221V1300.89H160.187L160.407 1248.81H249.945V1300.89H245.411V1304.66H249.945V1330.13H312.565V1283.55H308.796V1326.36H253.714V1248.84H308.757V1253.36H312.565V1248.84H465.337V1093.6H447.1Z" fill="black"/>
<path fill-rule="evenodd" clip-rule="evenodd" d="M534.588 1076.25V1306.6H543.892V1248.76H558.872V1244.98H554.93V1228.42H542.851V1116.46H554.93V1108.91H653.228V1245.02H592.059V1248.8H656.997V1108.89H797.232V1150.55H687.187V1154.33H797.232V1157.35H801.009V1117.49H838.989V1227.44H801.009V1187.56H797.232V1248.81H918.892V1245.04H842.758V1109.93H949.043V1248.81H1028.8V1245.04H952.796V1109.94H1059.04V1248.81H1136.93V1245.04H1114.38V1234.49H1081.26V1227.44H1062.79V1112.95H1167.09V1248.81H1244.98V1245.04H1170.87V1112.95H1275.17V1248.81H1278.95V1112.95H1383.3V1245.04H1343.96V1227.44H1322.58V1245.04H1309.18V1248.81H1461.15V1245.04H1387.03V1109.93H1491.31V1248.84H1495.11V1109.96H1601.78V1227.44H1585.22V1245.04H1525.3V1248.81H1681V1245.04H1605.52V1136.35H1756.12V1066.91H1752.34V1122.02H1705.96V1066.91H1701.31V1131.7H1605.75V996.087H1701.31V1036.72H1705.96V995.212H1752.34V1036.72H1756.12V930.227H1752.34V991.404H1605.75V899.997H1756.12V836.92H1752.34V896.244H1605.75V806.73H1756.12V743.653H1752.34V802.961H1605.75V713.447H1756.12V650.371H1752.34V709.694H1605.75V620.157H1756.12V557.08H1752.34V616.404H1605.75V526.866H1756.12V463.789H1752.34V523.113H1605.75V433.607H1756.12V370.475H1752.34V429.83H1603.55V340.284H1756.12V336.508H1603.55V244.975H1741.79V278.879L1752.37 278.887V306.317H1756.14V230.507H1752.37V241.175H1595.31V377.784H1595.9V401.84H1585.93V579.101H1602.02V1106.16H1383.3V1109.18H1066.56V1105.13H538.341V1076.25H534.588Z" fill="black"/>
<rect x="1984" y="703" width="1" height="2" fill="#E0E0E0"/>
<rect x="2043" y="703" width="1" height="2" fill="#E0E0E0"/>
<rect x="530" y="47" width="11" height="5" fill="#ECECEC"/>
<circle cx="697" cy="1226" r="12" stroke="black" stroke-width="2"/>
<circle cx="726" cy="1226" r="12" stroke="black" stroke-width="2"/>
<circle cx="755" cy="1226" r="12" stroke="black" stroke-width="2"/>
<circle cx="1694" cy="1510" r="12" stroke="black" stroke-width="2"/>
<circle cx="1694" cy="1542" r="12" stroke="black" stroke-width="2"/>
<circle cx="1694" cy="1574" r="12" stroke="black" stroke-width="2"/>
<circle cx="1694" cy="1606" r="12" stroke="black" stroke-width="2"/>
<circle cx="2078" cy="1446" r="12" stroke="black" stroke-width="2"/>
<circle cx="2133" cy="1368" r="12" stroke="black" stroke-width="2"/>
<circle cx="2097" cy="1420" r="12" stroke="black" stroke-width="2"/>
<circle cx="2152" cy="1342" r="12" stroke="black" stroke-width="2"/>
<circle cx="2114" cy="1394" r="12" stroke="black" stroke-width="2"/>
<circle cx="2169" cy="1316" r="12" stroke="black" stroke-width="2"/>
<circle cx="1698" cy="1187" r="12" stroke="black" stroke-width="2"/>
<circle cx="1698" cy="1219" r="12" stroke="black" stroke-width="2"/>
<path d="M693.109 1226.41L693.766 1220.62H700.141V1222.51H695.617L695.336 1224.95C695.872 1224.67 696.443 1224.52 697.047 1224.52C698.13 1224.52 698.979 1224.86 699.594 1225.53C700.208 1226.2 700.516 1227.14 700.516 1228.35C700.516 1229.09 700.359 1229.74 700.047 1230.33C699.74 1230.91 699.297 1231.36 698.719 1231.68C698.141 1232 697.458 1232.16 696.672 1232.16C695.984 1232.16 695.346 1232.02 694.758 1231.74C694.169 1231.46 693.703 1231.07 693.359 1230.56C693.021 1230.06 692.841 1229.48 692.82 1228.84H695.055C695.102 1229.31 695.266 1229.68 695.547 1229.95C695.833 1230.21 696.206 1230.34 696.664 1230.34C697.174 1230.34 697.568 1230.15 697.844 1229.79C698.12 1229.42 698.258 1228.9 698.258 1228.23C698.258 1227.58 698.099 1227.09 697.781 1226.74C697.464 1226.4 697.013 1226.23 696.43 1226.23C695.893 1226.23 695.458 1226.37 695.125 1226.65L694.906 1226.85L693.109 1226.41Z" fill="black"/>
<path d="M727.898 1220.51V1222.37H727.68C726.659 1222.38 725.836 1222.65 725.211 1223.16C724.591 1223.68 724.219 1224.4 724.094 1225.31C724.698 1224.7 725.461 1224.39 726.383 1224.39C727.372 1224.39 728.159 1224.74 728.742 1225.45C729.326 1226.16 729.617 1227.09 729.617 1228.25C729.617 1228.99 729.456 1229.66 729.133 1230.26C728.815 1230.86 728.362 1231.32 727.773 1231.66C727.19 1231.99 726.529 1232.16 725.789 1232.16C724.591 1232.16 723.622 1231.74 722.883 1230.91C722.148 1230.07 721.781 1228.96 721.781 1227.57V1226.76C721.781 1225.52 722.013 1224.43 722.477 1223.49C722.945 1222.54 723.615 1221.81 724.484 1221.3C725.359 1220.78 726.372 1220.51 727.523 1220.51H727.898ZM725.695 1226.2C725.331 1226.2 725 1226.3 724.703 1226.49C724.406 1226.68 724.188 1226.93 724.047 1227.24V1227.93C724.047 1228.68 724.195 1229.28 724.492 1229.7C724.789 1230.12 725.206 1230.34 725.742 1230.34C726.227 1230.34 726.617 1230.15 726.914 1229.77C727.216 1229.38 727.367 1228.88 727.367 1228.27C727.367 1227.65 727.216 1227.15 726.914 1226.77C726.612 1226.39 726.206 1226.2 725.695 1226.2Z" fill="black"/>
<path d="M758.508 1221.89L754.109 1232H751.727L756.133 1222.45H750.477V1220.62H758.508V1221.89Z" fill="black"/>
<path d="M1690.26 1516H1688V1507.3L1685.3 1508.13V1506.3L1690.02 1504.61H1690.26V1516ZM1696.26 1509.31H1697.46C1698.03 1509.31 1698.46 1509.17 1698.73 1508.88C1699.01 1508.6 1699.15 1508.22 1699.15 1507.74C1699.15 1507.28 1699.01 1506.93 1698.73 1506.67C1698.46 1506.42 1698.09 1506.29 1697.61 1506.29C1697.18 1506.29 1696.82 1506.41 1696.52 1506.65C1696.23 1506.88 1696.09 1507.19 1696.09 1507.57H1693.83C1693.83 1506.98 1693.99 1506.45 1694.3 1505.98C1694.63 1505.5 1695.08 1505.13 1695.65 1504.87C1696.23 1504.6 1696.86 1504.47 1697.55 1504.47C1698.76 1504.47 1699.7 1504.76 1700.38 1505.34C1701.07 1505.91 1701.41 1506.7 1701.41 1507.71C1701.41 1508.23 1701.25 1508.71 1700.93 1509.15C1700.61 1509.59 1700.2 1509.92 1699.68 1510.16C1700.32 1510.39 1700.8 1510.73 1701.11 1511.19C1701.43 1511.65 1701.59 1512.19 1701.59 1512.81C1701.59 1513.82 1701.22 1514.63 1700.48 1515.24C1699.74 1515.85 1698.77 1516.16 1697.55 1516.16C1696.42 1516.16 1695.49 1515.86 1694.77 1515.26C1694.05 1514.66 1693.69 1513.87 1693.69 1512.88H1695.95C1695.95 1513.31 1696.1 1513.66 1696.42 1513.93C1696.74 1514.2 1697.14 1514.34 1697.61 1514.34C1698.15 1514.34 1698.57 1514.2 1698.87 1513.91C1699.17 1513.63 1699.33 1513.25 1699.33 1512.78C1699.33 1511.65 1698.7 1511.08 1697.45 1511.08H1696.26V1509.31Z" fill="black"/>
<path d="M1690.26 1548H1688V1539.3L1685.3 1540.13V1538.3L1690.02 1536.61H1690.26V1548ZM1700.64 1543.72H1701.93V1545.54H1700.64V1548H1698.38V1545.54H1693.72L1693.62 1544.12L1698.36 1536.62H1700.64V1543.72ZM1695.87 1543.72H1698.38V1539.7L1698.23 1539.96L1695.87 1543.72Z" fill="black"/>
<path d="M1690.26 1580H1688V1571.3L1685.3 1572.13V1570.3L1690.02 1568.61H1690.26V1580ZM1694.3 1574.41L1694.95 1568.62H1701.33V1570.51H1696.8L1696.52 1572.95C1697.06 1572.67 1697.63 1572.52 1698.23 1572.52C1699.32 1572.52 1700.17 1572.86 1700.78 1573.53C1701.4 1574.2 1701.7 1575.14 1701.7 1576.35C1701.7 1577.09 1701.55 1577.74 1701.23 1578.33C1700.93 1578.91 1700.48 1579.36 1699.91 1579.68C1699.33 1580 1698.65 1580.16 1697.86 1580.16C1697.17 1580.16 1696.53 1580.02 1695.95 1579.74C1695.36 1579.46 1694.89 1579.07 1694.55 1578.56C1694.21 1578.06 1694.03 1577.48 1694.01 1576.84H1696.24C1696.29 1577.31 1696.45 1577.68 1696.73 1577.95C1697.02 1578.21 1697.39 1578.34 1697.85 1578.34C1698.36 1578.34 1698.76 1578.15 1699.03 1577.79C1699.31 1577.42 1699.45 1576.9 1699.45 1576.23C1699.45 1575.58 1699.29 1575.09 1698.97 1574.74C1698.65 1574.4 1698.2 1574.23 1697.62 1574.23C1697.08 1574.23 1696.65 1574.37 1696.31 1574.65L1696.09 1574.85L1694.3 1574.41Z" fill="black"/>
<path d="M1690.26 1612H1688V1603.3L1685.3 1604.13V1602.3L1690.02 1600.61H1690.26V1612ZM1700.09 1600.51V1602.37H1699.87C1698.85 1602.38 1698.02 1602.65 1697.4 1603.16C1696.78 1603.68 1696.41 1604.4 1696.28 1605.31C1696.89 1604.7 1697.65 1604.39 1698.57 1604.39C1699.56 1604.39 1700.35 1604.74 1700.93 1605.45C1701.51 1606.16 1701.8 1607.09 1701.8 1608.25C1701.8 1608.99 1701.64 1609.66 1701.32 1610.26C1701 1610.86 1700.55 1611.32 1699.96 1611.66C1699.38 1611.99 1698.72 1612.16 1697.98 1612.16C1696.78 1612.16 1695.81 1611.74 1695.07 1610.91C1694.34 1610.07 1693.97 1608.96 1693.97 1607.57V1606.76C1693.97 1605.52 1694.2 1604.43 1694.66 1603.49C1695.13 1602.54 1695.8 1601.81 1696.67 1601.3C1697.55 1600.78 1698.56 1600.51 1699.71 1600.51H1700.09ZM1697.88 1606.2C1697.52 1606.2 1697.19 1606.3 1696.89 1606.49C1696.59 1606.68 1696.38 1606.93 1696.23 1607.24V1607.93C1696.23 1608.68 1696.38 1609.28 1696.68 1609.7C1696.98 1610.12 1697.39 1610.34 1697.93 1610.34C1698.41 1610.34 1698.8 1610.15 1699.1 1609.77C1699.4 1609.38 1699.55 1608.88 1699.55 1608.27C1699.55 1607.65 1699.4 1607.15 1699.1 1606.77C1698.8 1606.39 1698.39 1606.2 1697.88 1606.2Z" fill="black"/>
<path d="M2074.26 1452H2072V1443.3L2069.3 1444.13V1442.3L2074.02 1440.61H2074.26V1452ZM2085.7 1441.89L2081.3 1452H2078.91L2083.32 1442.45H2077.66V1440.62H2085.7V1441.89Z" fill="black"/>
<path d="M2132.57 1374H2124.77V1372.45L2128.45 1368.53C2128.96 1367.98 2129.33 1367.5 2129.57 1367.09C2129.82 1366.67 2129.94 1366.28 2129.94 1365.91C2129.94 1365.41 2129.81 1365.01 2129.55 1364.73C2129.3 1364.43 2128.93 1364.29 2128.46 1364.29C2127.95 1364.29 2127.55 1364.47 2127.25 1364.82C2126.96 1365.17 2126.81 1365.63 2126.81 1366.2H2124.55C2124.55 1365.51 2124.71 1364.88 2125.04 1364.3C2125.37 1363.73 2125.84 1363.28 2126.45 1362.96C2127.05 1362.63 2127.73 1362.47 2128.5 1362.47C2129.67 1362.47 2130.58 1362.75 2131.23 1363.31C2131.88 1363.88 2132.2 1364.67 2132.2 1365.7C2132.2 1366.26 2132.06 1366.83 2131.77 1367.41C2131.47 1368 2130.97 1368.68 2130.27 1369.45L2127.68 1372.18H2132.57V1374ZM2141.62 1369.3C2141.62 1370.87 2141.29 1372.07 2140.64 1372.91C2139.99 1373.74 2139.04 1374.16 2137.78 1374.16C2136.54 1374.16 2135.59 1373.75 2134.94 1372.93C2134.28 1372.11 2133.95 1370.94 2133.93 1369.41V1367.32C2133.93 1365.73 2134.26 1364.53 2134.91 1363.7C2135.58 1362.88 2136.53 1362.47 2137.77 1362.47C2139.01 1362.47 2139.95 1362.88 2140.61 1363.7C2141.27 1364.51 2141.6 1365.68 2141.62 1367.2V1369.3ZM2139.36 1367C2139.36 1366.06 2139.23 1365.37 2138.97 1364.95C2138.71 1364.51 2138.31 1364.3 2137.77 1364.3C2137.23 1364.3 2136.84 1364.5 2136.59 1364.91C2136.34 1365.32 2136.2 1365.96 2136.19 1366.83V1369.59C2136.19 1370.52 2136.31 1371.21 2136.56 1371.66C2136.82 1372.11 2137.22 1372.34 2137.78 1372.34C2138.33 1372.34 2138.73 1372.12 2138.98 1371.69C2139.22 1371.26 2139.35 1370.59 2139.36 1369.7V1367Z" fill="black"/>
<path d="M2093.26 1426H2091V1417.3L2088.3 1418.13V1416.3L2093.02 1414.61H2093.26V1426ZM2104.38 1417.65C2104.38 1418.2 2104.24 1418.69 2103.96 1419.12C2103.68 1419.54 2103.3 1419.89 2102.82 1420.14C2103.37 1420.41 2103.81 1420.77 2104.13 1421.24C2104.46 1421.71 2104.62 1422.25 2104.62 1422.88C2104.62 1423.89 2104.27 1424.69 2103.59 1425.28C2102.9 1425.86 2101.96 1426.16 2100.78 1426.16C2099.6 1426.16 2098.66 1425.86 2097.97 1425.27C2097.28 1424.68 2096.93 1423.89 2096.93 1422.88C2096.93 1422.25 2097.09 1421.7 2097.41 1421.23C2097.74 1420.77 2098.17 1420.4 2098.72 1420.14C2098.23 1419.89 2097.85 1419.54 2097.58 1419.12C2097.31 1418.69 2097.17 1418.2 2097.17 1417.65C2097.17 1416.68 2097.49 1415.91 2098.14 1415.34C2098.79 1414.76 2099.66 1414.47 2100.77 1414.47C2101.88 1414.47 2102.75 1414.76 2103.4 1415.33C2104.05 1415.9 2104.38 1416.67 2104.38 1417.65ZM2102.35 1422.72C2102.35 1422.22 2102.21 1421.83 2101.92 1421.53C2101.64 1421.23 2101.25 1421.09 2100.77 1421.09C2100.29 1421.09 2099.9 1421.23 2099.62 1421.53C2099.33 1421.82 2099.19 1422.22 2099.19 1422.72C2099.19 1423.2 2099.33 1423.59 2099.61 1423.89C2099.89 1424.19 2100.28 1424.34 2100.78 1424.34C2101.27 1424.34 2101.65 1424.19 2101.93 1423.91C2102.21 1423.62 2102.35 1423.22 2102.35 1422.72ZM2102.12 1417.76C2102.12 1417.32 2102 1416.96 2101.77 1416.7C2101.53 1416.42 2101.2 1416.29 2100.77 1416.29C2100.35 1416.29 2100.02 1416.42 2099.79 1416.68C2099.55 1416.94 2099.44 1417.3 2099.44 1417.76C2099.44 1418.21 2099.55 1418.58 2099.79 1418.85C2100.02 1419.13 2100.35 1419.27 2100.78 1419.27C2101.21 1419.27 2101.54 1419.13 2101.77 1418.85C2102 1418.58 2102.12 1418.21 2102.12 1417.76Z" fill="black"/>
<path d="M2151.57 1348H2143.77V1346.45L2147.45 1342.53C2147.96 1341.98 2148.33 1341.5 2148.57 1341.09C2148.82 1340.67 2148.94 1340.28 2148.94 1339.91C2148.94 1339.41 2148.81 1339.01 2148.55 1338.73C2148.3 1338.43 2147.93 1338.29 2147.46 1338.29C2146.95 1338.29 2146.55 1338.47 2146.25 1338.82C2145.96 1339.17 2145.81 1339.63 2145.81 1340.2H2143.55C2143.55 1339.51 2143.71 1338.88 2144.04 1338.3C2144.37 1337.73 2144.84 1337.28 2145.45 1336.96C2146.05 1336.63 2146.73 1336.47 2147.5 1336.47C2148.67 1336.47 2149.58 1336.75 2150.23 1337.31C2150.88 1337.88 2151.2 1338.67 2151.2 1339.7C2151.2 1340.26 2151.06 1340.83 2150.77 1341.41C2150.47 1342 2149.97 1342.68 2149.27 1343.45L2146.68 1346.18H2151.57V1348ZM2158.45 1348H2156.19V1339.3L2153.49 1340.13V1338.3L2158.2 1336.61H2158.45V1348Z" fill="black"/>
<path d="M2110.26 1400H2108V1391.3L2105.3 1392.13V1390.3L2110.02 1388.61H2110.26V1400ZM2119.24 1395.45C2118.65 1396.03 2117.97 1396.32 2117.18 1396.32C2116.17 1396.32 2115.37 1395.98 2114.77 1395.29C2114.16 1394.6 2113.86 1393.66 2113.86 1392.49C2113.86 1391.75 2114.02 1391.07 2114.34 1390.45C2114.67 1389.82 2115.13 1389.34 2115.71 1388.99C2116.29 1388.64 2116.95 1388.47 2117.68 1388.47C2118.43 1388.47 2119.1 1388.66 2119.68 1389.03C2120.26 1389.41 2120.72 1389.95 2121.04 1390.65C2121.36 1391.35 2121.53 1392.16 2121.53 1393.06V1393.9C2121.53 1395.79 2121.06 1397.28 2120.12 1398.37C2119.17 1399.45 2117.84 1400.03 2116.11 1400.1L2115.55 1400.11V1398.23L2116.05 1398.22C2118.02 1398.13 2119.08 1397.21 2119.24 1395.45ZM2117.73 1394.59C2118.1 1394.59 2118.41 1394.5 2118.67 1394.31C2118.94 1394.12 2119.14 1393.9 2119.27 1393.63V1392.7C2119.27 1391.94 2119.13 1391.34 2118.84 1390.92C2118.54 1390.5 2118.15 1390.29 2117.66 1390.29C2117.21 1390.29 2116.84 1390.5 2116.55 1390.91C2116.26 1391.33 2116.11 1391.84 2116.11 1392.47C2116.11 1393.09 2116.25 1393.6 2116.53 1394C2116.82 1394.4 2117.22 1394.59 2117.73 1394.59Z" fill="black"/>
<path d="M2168.57 1322H2160.77V1320.45L2164.45 1316.53C2164.96 1315.98 2165.33 1315.5 2165.57 1315.09C2165.82 1314.67 2165.94 1314.28 2165.94 1313.91C2165.94 1313.41 2165.81 1313.01 2165.55 1312.73C2165.3 1312.43 2164.93 1312.29 2164.46 1312.29C2163.95 1312.29 2163.55 1312.47 2163.25 1312.82C2162.96 1313.17 2162.81 1313.63 2162.81 1314.2H2160.55C2160.55 1313.51 2160.71 1312.88 2161.04 1312.3C2161.37 1311.73 2161.84 1311.28 2162.45 1310.96C2163.05 1310.63 2163.73 1310.47 2164.5 1310.47C2165.67 1310.47 2166.58 1310.75 2167.23 1311.31C2167.88 1311.88 2168.2 1312.67 2168.2 1313.7C2168.2 1314.26 2168.06 1314.83 2167.77 1315.41C2167.47 1316 2166.97 1316.68 2166.27 1317.45L2163.68 1320.18H2168.57V1322ZM2177.76 1322H2169.96V1320.45L2173.64 1316.53C2174.15 1315.98 2174.52 1315.5 2174.76 1315.09C2175 1314.67 2175.12 1314.28 2175.12 1313.91C2175.12 1313.41 2175 1313.01 2174.74 1312.73C2174.49 1312.43 2174.12 1312.29 2173.65 1312.29C2173.14 1312.29 2172.73 1312.47 2172.44 1312.82C2172.15 1313.17 2172 1313.63 2172 1314.2H2169.73C2169.73 1313.51 2169.9 1312.88 2170.23 1312.3C2170.56 1311.73 2171.03 1311.28 2171.63 1310.96C2172.24 1310.63 2172.92 1310.47 2173.69 1310.47C2174.86 1310.47 2175.77 1310.75 2176.41 1311.31C2177.07 1311.88 2177.39 1312.67 2177.39 1313.7C2177.39 1314.26 2177.24 1314.83 2176.95 1315.41C2176.66 1316 2176.16 1316.68 2175.45 1317.45L2172.87 1320.18H2177.76V1322Z" fill="black"/>
<path d="M1697.57 1193H1689.77V1191.45L1693.45 1187.53C1693.96 1186.98 1694.33 1186.5 1694.57 1186.09C1694.82 1185.67 1694.94 1185.28 1694.94 1184.91C1694.94 1184.41 1694.81 1184.01 1694.55 1183.73C1694.3 1183.43 1693.93 1183.29 1693.46 1183.29C1692.95 1183.29 1692.55 1183.47 1692.25 1183.82C1691.96 1184.17 1691.81 1184.63 1691.81 1185.2H1689.55C1689.55 1184.51 1689.71 1183.88 1690.04 1183.3C1690.37 1182.73 1690.84 1182.28 1691.45 1181.96C1692.05 1181.63 1692.73 1181.47 1693.5 1181.47C1694.67 1181.47 1695.58 1181.75 1696.23 1182.31C1696.88 1182.88 1697.2 1183.67 1697.2 1184.7C1697.2 1185.26 1697.06 1185.83 1696.77 1186.41C1696.47 1187 1695.97 1187.68 1695.27 1188.45L1692.68 1191.18H1697.57V1193ZM1706.38 1184.65C1706.38 1185.2 1706.24 1185.69 1705.96 1186.12C1705.68 1186.54 1705.3 1186.89 1704.82 1187.14C1705.37 1187.41 1705.81 1187.77 1706.13 1188.24C1706.46 1188.71 1706.62 1189.25 1706.62 1189.88C1706.62 1190.89 1706.27 1191.69 1705.59 1192.28C1704.9 1192.86 1703.96 1193.16 1702.78 1193.16C1701.6 1193.16 1700.66 1192.86 1699.97 1192.27C1699.28 1191.68 1698.93 1190.89 1698.93 1189.88C1698.93 1189.25 1699.09 1188.7 1699.41 1188.23C1699.74 1187.77 1700.17 1187.4 1700.72 1187.14C1700.23 1186.89 1699.85 1186.54 1699.58 1186.12C1699.31 1185.69 1699.17 1185.2 1699.17 1184.65C1699.17 1183.68 1699.49 1182.91 1700.14 1182.34C1700.79 1181.76 1701.66 1181.47 1702.77 1181.47C1703.88 1181.47 1704.75 1181.76 1705.4 1182.33C1706.05 1182.9 1706.38 1183.67 1706.38 1184.65ZM1704.35 1189.72C1704.35 1189.22 1704.21 1188.83 1703.92 1188.53C1703.64 1188.23 1703.25 1188.09 1702.77 1188.09C1702.29 1188.09 1701.9 1188.23 1701.62 1188.53C1701.33 1188.82 1701.19 1189.22 1701.19 1189.72C1701.19 1190.2 1701.33 1190.59 1701.61 1190.89C1701.89 1191.19 1702.28 1191.34 1702.78 1191.34C1703.27 1191.34 1703.65 1191.19 1703.93 1190.91C1704.21 1190.62 1704.35 1190.22 1704.35 1189.72ZM1704.12 1184.76C1704.12 1184.32 1704 1183.96 1703.77 1183.7C1703.53 1183.42 1703.2 1183.29 1702.77 1183.29C1702.35 1183.29 1702.02 1183.42 1701.79 1183.68C1701.55 1183.94 1701.44 1184.3 1701.44 1184.76C1701.44 1185.21 1701.55 1185.58 1701.79 1185.85C1702.02 1186.13 1702.35 1186.27 1702.78 1186.27C1703.21 1186.27 1703.54 1186.13 1703.77 1185.85C1704 1185.58 1704.12 1185.21 1704.12 1184.76Z" fill="black"/>
<path d="M1697.57 1225H1689.77V1223.45L1693.45 1219.53C1693.96 1218.98 1694.33 1218.5 1694.57 1218.09C1694.82 1217.67 1694.94 1217.28 1694.94 1216.91C1694.94 1216.41 1694.81 1216.01 1694.55 1215.73C1694.3 1215.43 1693.93 1215.29 1693.46 1215.29C1692.95 1215.29 1692.55 1215.47 1692.25 1215.82C1691.96 1216.17 1691.81 1216.63 1691.81 1217.2H1689.55C1689.55 1216.51 1689.71 1215.88 1690.04 1215.3C1690.37 1214.73 1690.84 1214.28 1691.45 1213.96C1692.05 1213.63 1692.73 1213.47 1693.5 1213.47C1694.67 1213.47 1695.58 1213.75 1696.23 1214.31C1696.88 1214.88 1697.2 1215.67 1697.2 1216.7C1697.2 1217.26 1697.06 1217.83 1696.77 1218.41C1696.47 1219 1695.97 1219.68 1695.27 1220.45L1692.68 1223.18H1697.57V1225ZM1704.24 1220.45C1703.65 1221.03 1702.97 1221.32 1702.18 1221.32C1701.17 1221.32 1700.37 1220.98 1699.77 1220.29C1699.16 1219.6 1698.86 1218.66 1698.86 1217.49C1698.86 1216.75 1699.02 1216.07 1699.34 1215.45C1699.67 1214.82 1700.13 1214.34 1700.71 1213.99C1701.29 1213.64 1701.95 1213.47 1702.68 1213.47C1703.43 1213.47 1704.1 1213.66 1704.68 1214.03C1705.26 1214.41 1705.72 1214.95 1706.04 1215.65C1706.36 1216.35 1706.53 1217.16 1706.53 1218.06V1218.9C1706.53 1220.79 1706.06 1222.28 1705.12 1223.37C1704.17 1224.45 1702.84 1225.03 1701.11 1225.1L1700.55 1225.11V1223.23L1701.05 1223.22C1703.02 1223.13 1704.08 1222.21 1704.24 1220.45ZM1702.73 1219.59C1703.1 1219.59 1703.41 1219.5 1703.67 1219.31C1703.94 1219.12 1704.14 1218.9 1704.27 1218.63V1217.7C1704.27 1216.94 1704.13 1216.34 1703.84 1215.92C1703.54 1215.5 1703.15 1215.29 1702.66 1215.29C1702.21 1215.29 1701.84 1215.5 1701.55 1215.91C1701.26 1216.33 1701.11 1216.84 1701.11 1217.47C1701.11 1218.09 1701.25 1218.6 1701.53 1219C1701.82 1219.4 1702.22 1219.59 1702.73 1219.59Z" fill="black"/>
<path d="M741.726 1167.97C735.126 1161.34 724.463 1161.34 717.95 1167.97C716.381 1169.53 715.136 1171.39 714.287 1173.44C713.437 1175.48 713 1177.68 713 1179.89C713 1182.11 713.437 1184.3 714.287 1186.35C715.136 1188.4 716.381 1190.26 717.95 1191.82L729.003 1202.67C729.216 1202.88 729.503 1203 729.802 1203C730.101 1203 730.388 1202.88 730.602 1202.67L741.641 1191.91C748.241 1185.29 748.241 1174.59 741.726 1167.97ZM729.803 1195.11C721.28 1195.11 714.486 1188.2 714.486 1179.8C714.486 1171.28 721.395 1164.48 729.803 1164.48C738.211 1164.48 745.116 1171.28 745.116 1179.8C745.116 1188.33 738.204 1195.11 729.803 1195.11Z" fill="black"/>
<g clip-path="url(#clip0)">
<circle cx="1639" cy="1359" r="16" fill="white"/>
<path d="M1650.73 1346.97C1644.13 1340.34 1633.46 1340.34 1626.95 1346.97C1625.38 1348.53 1624.14 1350.39 1623.29 1352.44C1622.44 1354.48 1622 1356.68 1622 1358.89C1622 1361.11 1622.44 1363.3 1623.29 1365.35C1624.14 1367.4 1625.38 1369.26 1626.95 1370.82L1638 1381.67C1638.22 1381.88 1638.5 1382 1638.8 1382C1639.1 1382 1639.39 1381.88 1639.6 1381.67L1650.64 1370.91C1657.24 1364.29 1657.24 1353.59 1650.73 1346.97ZM1638.8 1374.11C1630.28 1374.11 1623.49 1367.2 1623.49 1358.8C1623.49 1350.28 1630.4 1343.48 1638.8 1343.48C1647.21 1343.48 1654.12 1350.28 1654.12 1358.8C1654.12 1367.33 1647.2 1374.11 1638.8 1374.11Z" fill="black"/>
<path d="M1643.39 1349.08C1643 1349.08 1642.61 1349.19 1642.27 1349.39C1641.93 1349.59 1641.66 1349.88 1641.47 1350.23C1642.02 1350.59 1642.49 1351.06 1642.85 1351.61C1643.22 1352.16 1643.46 1352.78 1643.58 1353.43C1644.14 1353.38 1644.66 1353.12 1645.03 1352.7C1645.4 1352.28 1645.59 1351.73 1645.57 1351.17C1645.54 1350.6 1645.3 1350.07 1644.9 1349.69C1644.49 1349.3 1643.95 1349.08 1643.39 1349.08V1349.08Z" fill="black"/>
<path fill-rule="evenodd" clip-rule="evenodd" d="M1635.48 1357.64L1635.56 1357.71C1636.43 1358.53 1637.58 1359 1638.78 1359C1639.98 1359.01 1641.14 1358.55 1642.02 1357.74L1642.11 1357.83L1642.19 1357.73C1642.37 1357.87 1642.52 1358.04 1642.62 1358.25C1642.72 1358.45 1642.77 1358.68 1642.77 1358.91L1642.64 1358.91H1642.77V1358.91V1361.66L1642.66 1361.67C1641.77 1361.78 1641.06 1362.54 1640.7 1363.58C1640.34 1364.61 1640.36 1365.88 1640.9 1366.95L1640.99 1367.14H1636.73L1636.82 1366.95C1637.38 1365.85 1637.37 1364.53 1636.98 1363.48C1636.59 1362.42 1635.83 1361.68 1634.89 1361.66L1634.76 1361.66V1358.91C1634.76 1358.91 1634.76 1358.91 1634.76 1358.91C1634.76 1358.67 1634.82 1358.44 1634.93 1358.23C1635.04 1358.02 1635.2 1357.83 1635.39 1357.7L1635.48 1357.64ZM1642.11 1358.01C1641.19 1358.82 1640.01 1359.27 1638.78 1359.26C1637.55 1359.26 1636.37 1358.8 1635.46 1357.98C1635.33 1358.08 1635.23 1358.2 1635.16 1358.35C1635.07 1358.52 1635.02 1358.71 1635.02 1358.91L1635.02 1361.41C1636.05 1361.49 1636.84 1362.32 1637.23 1363.39C1637.62 1364.44 1637.65 1365.74 1637.15 1366.87H1640.57C1640.09 1365.78 1640.1 1364.52 1640.45 1363.49C1640.81 1362.45 1641.54 1361.61 1642.51 1361.43V1358.91C1642.51 1358.72 1642.47 1358.53 1642.38 1358.37C1642.32 1358.23 1642.22 1358.11 1642.11 1358.01Z" fill="black"/>
<path d="M1647.12 1361.2L1643.66 1357.92C1643.5 1357.77 1643.31 1357.65 1643.11 1357.57C1642.9 1357.49 1642.68 1357.46 1642.46 1357.47C1642.35 1357.6 1642.15 1357.72 1642.03 1357.83C1642.19 1357.96 1642.33 1358.12 1642.42 1358.31C1642.52 1358.49 1642.56 1358.7 1642.56 1358.91V1361.56L1642.62 1361.62C1642.68 1361.61 1642.73 1361.61 1642.79 1361.61C1643.9 1361.61 1644.93 1362.51 1645.27 1363.88C1645.62 1364.05 1646.03 1364.09 1646.41 1363.99C1646.79 1363.89 1647.12 1363.66 1647.34 1363.33C1647.56 1363.01 1647.67 1362.62 1647.63 1362.23C1647.59 1361.84 1647.41 1361.48 1647.12 1361.2V1361.2Z" fill="black"/>
<path d="M1634.93 1361.61H1634.97V1358.91C1634.97 1358.69 1635.02 1358.48 1635.12 1358.29C1635.22 1358.09 1635.37 1357.93 1635.54 1357.8L1635.55 1357.81C1635.44 1357.7 1635.25 1357.59 1635.14 1357.47C1634.92 1357.46 1634.7 1357.49 1634.5 1357.57C1634.29 1357.65 1634.1 1357.77 1633.94 1357.92L1630.48 1361.2C1630.18 1361.48 1630 1361.86 1629.97 1362.27C1629.94 1362.68 1630.06 1363.08 1630.3 1363.4C1630.55 1363.72 1630.91 1363.94 1631.31 1364.02C1631.71 1364.09 1632.13 1364.01 1632.47 1363.8C1632.83 1362.47 1633.84 1361.61 1634.93 1361.61Z" fill="black"/>
<path d="M1634.85 1368.51C1636.25 1368.51 1637.39 1366.95 1637.39 1365.02C1637.39 1363.09 1636.25 1361.53 1634.85 1361.53C1633.45 1361.53 1632.31 1363.09 1632.31 1365.02C1632.31 1366.95 1633.45 1368.51 1634.85 1368.51Z" fill="#EE2327"/>
<path d="M1642.87 1368.51C1644.27 1368.51 1645.41 1366.95 1645.41 1365.02C1645.41 1363.09 1644.27 1361.53 1642.87 1361.53C1641.47 1361.53 1640.33 1363.09 1640.33 1365.02C1640.33 1366.95 1641.47 1368.51 1642.87 1368.51Z" fill="#EE2327"/>
<path fill-rule="evenodd" clip-rule="evenodd" d="M1636.02 1350.12C1636.85 1349.57 1637.81 1349.28 1638.8 1349.28L1638.8 1349.41L1638.8 1349.28C1640.13 1349.28 1641.4 1349.81 1642.34 1350.74C1643.28 1351.68 1643.8 1352.95 1643.8 1354.28V1354.28C1643.8 1355.27 1643.51 1356.24 1642.96 1357.06C1642.41 1357.88 1641.63 1358.52 1640.72 1358.9C1639.8 1359.28 1638.8 1359.38 1637.82 1359.19C1636.85 1358.99 1635.96 1358.52 1635.26 1357.82C1634.56 1357.12 1634.09 1356.23 1633.89 1355.26C1633.7 1354.28 1633.8 1353.28 1634.18 1352.36C1634.56 1351.45 1635.2 1350.67 1636.02 1350.12ZM1638.8 1349.54C1637.87 1349.54 1636.95 1349.82 1636.17 1350.34C1635.39 1350.86 1634.78 1351.6 1634.42 1352.46C1634.06 1353.33 1633.97 1354.28 1634.15 1355.2C1634.33 1356.12 1634.79 1356.97 1635.45 1357.63C1636.11 1358.29 1636.96 1358.75 1637.88 1358.93C1638.8 1359.11 1639.75 1359.02 1640.62 1358.66C1641.48 1358.3 1642.22 1357.69 1642.74 1356.91C1643.26 1356.13 1643.54 1355.22 1643.54 1354.28C1643.54 1353.02 1643.04 1351.82 1642.15 1350.93C1641.26 1350.04 1640.06 1349.54 1638.8 1349.54Z" fill="black"/>
<path d="M1636.08 1350.26C1635.9 1349.92 1635.64 1349.64 1635.32 1349.43C1635 1349.22 1634.63 1349.11 1634.25 1349.09C1633.87 1349.07 1633.49 1349.15 1633.15 1349.32C1632.81 1349.5 1632.53 1349.76 1632.32 1350.08C1632.11 1350.4 1631.99 1350.76 1631.97 1351.15C1631.95 1351.53 1632.03 1351.91 1632.2 1352.25C1632.38 1352.59 1632.63 1352.87 1632.95 1353.08C1633.27 1353.29 1633.64 1353.41 1634.02 1353.43C1634.14 1352.8 1634.38 1352.18 1634.73 1351.64C1635.08 1351.09 1635.54 1350.63 1636.08 1350.26V1350.26Z" fill="black"/>
</g>
<g clip-path="url(#clip1)">
<circle cx="2101" cy="1343" r="16" fill="white"/>
<path d="M2112.73 1330.97C2106.13 1324.34 2095.46 1324.34 2088.95 1330.97C2087.38 1332.53 2086.14 1334.39 2085.29 1336.44C2084.44 1338.48 2084 1340.68 2084 1342.89C2084 1345.11 2084.44 1347.3 2085.29 1349.35C2086.14 1351.4 2087.38 1353.26 2088.95 1354.82L2100 1365.67C2100.22 1365.88 2100.5 1366 2100.8 1366C2101.1 1366 2101.39 1365.88 2101.6 1365.67L2112.64 1354.91C2119.24 1348.29 2119.24 1337.59 2112.73 1330.97ZM2100.8 1358.11C2092.28 1358.11 2085.49 1351.2 2085.49 1342.8C2085.49 1334.28 2092.4 1327.48 2100.8 1327.48C2109.21 1327.48 2116.12 1334.28 2116.12 1342.8C2116.12 1351.33 2109.2 1358.11 2100.8 1358.11Z" fill="black"/>
</g>
<g clip-path="url(#clip2)">
<circle cx="1656" cy="1551" r="16" fill="white"/>
<path d="M1667.73 1538.97C1661.13 1532.34 1650.46 1532.34 1643.95 1538.97C1642.38 1540.53 1641.14 1542.39 1640.29 1544.44C1639.44 1546.48 1639 1548.68 1639 1550.89C1639 1553.11 1639.44 1555.3 1640.29 1557.35C1641.14 1559.4 1642.38 1561.26 1643.95 1562.82L1655 1573.67C1655.22 1573.88 1655.5 1574 1655.8 1574C1656.1 1574 1656.39 1573.88 1656.6 1573.67L1667.64 1562.91C1674.24 1556.29 1674.24 1545.59 1667.73 1538.97ZM1655.8 1566.11C1647.28 1566.11 1640.49 1559.2 1640.49 1550.8C1640.49 1542.28 1647.4 1535.48 1655.8 1535.48C1664.21 1535.48 1671.12 1542.28 1671.12 1550.8C1671.12 1559.33 1664.2 1566.11 1655.8 1566.11Z" fill="black"/>
</g>
<g clip-path="url(#clip3)">
<circle cx="1656" cy="1193" r="16" fill="white"/>
<path d="M1667.73 1180.97C1661.13 1174.34 1650.46 1174.34 1643.95 1180.97C1642.38 1182.53 1641.14 1184.39 1640.29 1186.44C1639.44 1188.48 1639 1190.68 1639 1192.89C1639 1195.11 1639.44 1197.3 1640.29 1199.35C1641.14 1201.4 1642.38 1203.26 1643.95 1204.82L1655 1215.67C1655.22 1215.88 1655.5 1216 1655.8 1216C1656.1 1216 1656.39 1215.88 1656.6 1215.67L1667.64 1204.91C1674.24 1198.29 1674.24 1187.59 1667.73 1180.97ZM1655.8 1208.11C1647.28 1208.11 1640.49 1201.2 1640.49 1192.8C1640.49 1184.28 1647.4 1177.48 1655.8 1177.48C1664.21 1177.48 1671.12 1184.28 1671.12 1192.8C1671.12 1201.33 1664.2 1208.11 1655.8 1208.11Z" fill="black"/>
</g>
<g clip-path="url(#clip4)">
<circle cx="1578" cy="1397" r="16" fill="white"/>
<path d="M1589.73 1384.97C1583.13 1378.34 1572.46 1378.34 1565.95 1384.97C1564.38 1386.53 1563.14 1388.39 1562.29 1390.44C1561.44 1392.48 1561 1394.68 1561 1396.89C1561 1399.11 1561.44 1401.3 1562.29 1403.35C1563.14 1405.4 1564.38 1407.26 1565.95 1408.82L1577 1419.67C1577.22 1419.88 1577.5 1420 1577.8 1420C1578.1 1420 1578.39 1419.88 1578.6 1419.67L1589.64 1408.91C1596.24 1402.29 1596.24 1391.59 1589.73 1384.97ZM1577.8 1412.11C1569.28 1412.11 1562.49 1405.2 1562.49 1396.8C1562.49 1388.28 1569.4 1381.48 1577.8 1381.48C1586.21 1381.48 1593.12 1388.28 1593.12 1396.8C1593.12 1405.33 1586.2 1412.11 1577.8 1412.11Z" fill="black"/>
<path d="M1584.64 1401.21L1583.98 1400.88L1577.91 1397.85C1577.88 1397.84 1577.85 1397.83 1577.81 1397.83C1577.78 1397.83 1577.74 1397.84 1577.71 1397.85L1571.64 1400.88L1570.99 1401.21C1570.94 1401.24 1570.89 1401.24 1570.84 1401.23C1570.79 1401.22 1570.74 1401.2 1570.71 1401.16C1570.68 1401.12 1570.66 1401.07 1570.66 1401.01C1570.66 1400.96 1570.68 1400.91 1570.71 1400.87L1570.88 1400.65L1576.1 1393.99L1577.64 1392.02C1577.66 1392 1577.69 1391.98 1577.72 1391.96C1577.75 1391.95 1577.78 1391.94 1577.81 1391.94C1577.85 1391.94 1577.88 1391.95 1577.91 1391.96C1577.94 1391.98 1577.97 1392 1577.99 1392.02L1579.53 1393.99L1584.74 1400.65L1584.92 1400.87C1584.95 1400.91 1584.96 1400.96 1584.96 1401.01C1584.96 1401.06 1584.94 1401.11 1584.91 1401.15C1584.88 1401.19 1584.83 1401.22 1584.78 1401.23C1584.73 1401.24 1584.68 1401.23 1584.64 1401.21H1584.64Z" fill="#EE2327"/>
<path d="M1576.1 1393.99L1570.88 1400.65C1568.82 1399.95 1567.53 1398.93 1567.53 1397.8C1567.54 1397.5 1567.63 1397.21 1567.77 1396.95C1567.91 1396.69 1568.11 1396.47 1568.34 1396.29C1569.69 1395.1 1572.59 1394.22 1576.1 1393.99Z" fill="black"/>
<path d="M1583.98 1400.88C1581.97 1401.42 1579.89 1401.68 1577.81 1401.66C1575.73 1401.68 1573.65 1401.42 1571.64 1400.88L1577.71 1397.85C1577.74 1397.84 1577.78 1397.83 1577.81 1397.83C1577.85 1397.83 1577.88 1397.84 1577.91 1397.85L1583.98 1400.88Z" fill="black"/>
<path d="M1588.1 1397.8C1588.1 1398.93 1586.8 1399.95 1584.74 1400.65L1579.53 1393.99C1580.85 1394.07 1582.15 1394.26 1583.44 1394.57C1585.13 1394.99 1586.47 1395.58 1587.27 1396.29C1587.51 1396.46 1587.71 1396.69 1587.85 1396.95C1587.99 1397.21 1588.08 1397.5 1588.1 1397.8V1397.8Z" fill="black"/>
</g>
<path opacity="0.06" d="M1904.34 1422C1876.35 1422 1852.96 1412.42 1834.18 1393.27C1815.39 1373.93 1806 1350.18 1806 1322C1806 1294.01 1815.39 1270.34 1834.18 1251.01C1852.96 1231.67 1876.81 1222 1905.72 1222C1922.48 1222 1936.66 1224.58 1948.27 1229.73C1960.05 1234.89 1971.1 1242.35 1981.41 1252.11L1959.59 1277.25C1942.28 1261.23 1924.23 1253.22 1905.45 1253.22C1887.03 1253.22 1871.75 1259.85 1859.59 1273.1C1847.62 1286.36 1841.64 1302.66 1841.64 1322C1841.64 1341.15 1847.71 1357.45 1859.87 1370.9C1872.02 1384.15 1887.22 1390.78 1905.45 1390.78C1916.5 1390.78 1926.26 1388.76 1934.73 1384.71C1943.2 1380.47 1951.95 1374.12 1960.97 1365.65L1982.8 1387.75C1971.93 1399.16 1960.42 1407.73 1948.27 1413.44C1936.11 1419.15 1921.47 1422 1904.34 1422Z" fill="#EE2327"/>
<path opacity="0.06" d="M1863 484V284H1937.57C1968.81 284 1994.33 293.524 2014.14 312.571C2033.95 331.429 2043.86 355.238 2043.86 384C2043.86 412.571 2033.86 436.381 2013.86 455.429C1994.05 474.476 1968.62 484 1937.57 484H1863ZM1898.14 452H1937.57C1958.33 452 1975.1 445.714 1987.86 433.143C2000.62 420.381 2007 404 2007 384C2007 364.19 2000.62 347.905 1987.86 335.143C1975.1 322.381 1958.33 316 1937.57 316H1898.14V452Z" fill="#EE2327"/>
<path opacity="0.06" d="M1091 1468V1268H1180.71C1203.76 1268 1221.19 1273.9 1233 1285.71C1241.95 1294.67 1246.43 1305.9 1246.43 1319.43C1246.43 1339.24 1236.9 1354.1 1217.86 1364C1244.33 1372.95 1257.57 1389.33 1257.57 1413.14C1257.57 1430.67 1250.9 1444.19 1237.57 1453.71C1224.24 1463.24 1206.24 1468 1183.57 1468H1091ZM1125.57 1352.29H1173.57C1185.19 1352.29 1194.33 1350 1201 1345.43C1207.86 1340.67 1211.29 1333.71 1211.29 1324.57C1211.29 1316.57 1208.24 1310.38 1202.14 1306C1196.05 1301.43 1187.38 1299.14 1176.14 1299.14H1125.57V1352.29ZM1125.57 1436.86H1183.86C1196.05 1436.86 1205.48 1434.48 1212.14 1429.71C1219 1424.95 1222.43 1418 1222.43 1408.86C1222.43 1390.95 1208.71 1382 1181.29 1382H1125.57V1436.86Z" fill="#EE2327"/>
<path opacity="0.06" d="M234 1474L321.522 1274H353.916L441.438 1474H404.497L384.322 1426.06H290.264L269.804 1474H234ZM303.051 1395.13H371.534L337.151 1315.7L303.051 1395.13Z" fill="#EE2327"/>
<g clip-path="url(#clip5)">
<circle cx="1779" cy="1452" r="16" fill="white"/>
<path d="M1790.73 1439.97C1784.13 1433.34 1773.46 1433.34 1766.95 1439.97C1765.38 1441.53 1764.14 1443.39 1763.29 1445.44C1762.44 1447.48 1762 1449.68 1762 1451.89C1762 1454.11 1762.44 1456.3 1763.29 1458.35C1764.14 1460.4 1765.38 1462.26 1766.95 1463.82L1778 1474.67C1778.22 1474.88 1778.5 1475 1778.8 1475C1779.1 1475 1779.39 1474.88 1779.6 1474.67L1790.64 1463.91C1797.24 1457.29 1797.24 1446.59 1790.73 1439.97ZM1778.8 1467.11C1770.28 1467.11 1763.49 1460.2 1763.49 1451.8C1763.49 1443.28 1770.4 1436.48 1778.8 1436.48C1787.21 1436.48 1794.12 1443.28 1794.12 1451.8C1794.12 1460.33 1787.2 1467.11 1778.8 1467.11Z" fill="black"/>
</g>
<circle cx="333" cy="1323" r="12" stroke="black" stroke-width="2"/>
<path d="M1953.25 1276.27L1959.36 1264.4L1922.6 1247.14L1904.28 1258.54L1897.93 1242.04H1889.58L1881.69 1246.99L1877.47 1239.4L1874.91 1226L1864.03 1229.75L1859.73 1235.27L1842.06 1229.19H1821.78L1805.09 1237.2H1794.16L1784.62 1251.56L1772.8 1268.56L1780.38 1273.07L1781.68 1284.46L1791.59 1291.02L1780.49 1308.81L1765.51 1314.23L1790.36 1326.63L1788.78 1340.67L1802.06 1355.77L1826.7 1353.82L1848.06 1373.21L1868.28 1352.37L1873.14 1365.42L1905.6 1367.86L1905.48 1339.58L1925.75 1340.78L1938.82 1322.23L1957.91 1319.87L1964.7 1291.42L1953.25 1276.27ZM1954.77 1316.37L1936.64 1318.62L1923.83 1336.82L1901.6 1335.49L1901.72 1363.7L1875.87 1361.77L1869.75 1345.32L1847.87 1367.86L1828.06 1349.84L1803.67 1351.78L1792.78 1339.4L1794.48 1324.38L1775.26 1314.8L1783.07 1311.98L1796.86 1289.9L1785.32 1282.27L1784 1270.76L1778.32 1267.33L1787.78 1253.7L1796.22 1241.08H1805.91L1822.6 1233.06H1841.39L1861.1 1239.84L1866.4 1233.01L1871.99 1231.08L1873.83 1240.75L1880.32 1252.41L1890.73 1245.91H1895.33L1902.43 1264.28L1922.93 1251.53L1954.21 1266.2L1948.82 1276.67L1960.65 1292.3L1954.77 1316.37Z" fill="black"/>
<defs>
<clipPath id="clip0">
<rect width="33.6013" height="40" fill="white" transform="translate(1622 1342)"/>
</clipPath>
<clipPath id="clip1">
<rect width="33.6013" height="40" fill="white" transform="translate(2084 1326)"/>
</clipPath>
<clipPath id="clip2">
<rect width="33.6013" height="40" fill="white" transform="translate(1639 1534)"/>
</clipPath>
<clipPath id="clip3">
<rect width="33.6013" height="40" fill="white" transform="translate(1639 1176)"/>
</clipPath>
<clipPath id="clip4">
<rect width="33.6013" height="40" fill="white" transform="translate(1561 1380)"/>
</clipPath>
<clipPath id="clip5">
<rect width="33.6013" height="40" fill="white" transform="translate(1762 1435)"/>
</clipPath>
</defs>
</svg>