<svg width="98" height="110" viewBox="0 0 98 110" fill="none" xmlns="http://www.w3.org/2000/svg">
	<g filter="url(#filter0_d)">
		<path d="M48.5 80C65.897 80 80 65.897 80 48.5C80 31.103 65.897 17 48.5 17C31.103 17 17 31.103 17 48.5C17 65.897 31.103 80 48.5 80Z" fill="white"/>
		<path d="M72.4512 24.9329C59.2519 11.689 37.927 11.689 24.8997 24.9329C21.7616 28.0628 19.2719 31.781 17.5732 35.8746C15.8744 39.9682 15 44.3567 15 48.7888C15 53.2208 15.8744 57.6094 17.5732 61.7029C19.2719 65.7965 21.7616 69.5147 24.8997 72.6446L47.0057 94.3476C47.4328 94.7658 48.0068 95 48.6045 95C49.2023 95 49.7763 94.7658 50.2034 94.3476L72.2818 72.8139C85.4811 59.57 85.4811 38.1768 72.4512 24.9329ZM48.6058 79.2278C31.559 79.2278 17.9725 65.4076 17.9725 48.605C17.9725 31.5555 31.7901 17.969 48.6058 17.969C65.4216 17.969 79.2313 31.5555 79.2313 48.605C79.2313 65.6544 65.4085 79.2278 48.6058 79.2278Z" fill="#EE2327"/>
		<path d="M37.9085 43.1232C37.8355 43.1231 37.7634 43.1085 37.6961 43.0805C37.6288 43.0524 37.5676 43.0114 37.5162 42.9597C37.4648 42.908 37.424 42.8467 37.3963 42.7792C37.3685 42.7118 37.3543 42.6396 37.3545 42.5666V39.3033C37.3545 39.0805 37.2662 38.8669 37.109 38.7092C36.9517 38.5515 36.7384 38.4625 36.5157 38.4618H30.871C30.7234 38.4618 30.5819 38.4032 30.4775 38.2988C30.3731 38.1944 30.3145 38.0528 30.3145 37.9052C30.3145 37.7576 30.3731 37.616 30.4775 37.5117C30.5819 37.4073 30.7234 37.3486 30.871 37.3486H36.5157C37.033 37.35 37.5287 37.5566 37.894 37.9231C38.2592 38.2895 38.4641 38.7859 38.4637 39.3033V42.5666C38.4639 42.6397 38.4497 42.712 38.4218 42.7795C38.394 42.8471 38.3531 42.9084 38.3016 42.9601C38.25 43.0118 38.1887 43.0529 38.1213 43.0808C38.0538 43.1088 37.9815 43.1232 37.9085 43.1232Z" fill="#000006"/>
		<path d="M52.9973 30.3334C52.7348 30.2979 50.834 30.1115 50.834 31.9834V42.5074H64.3851C63.7011 36.3666 59.0056 31.2982 52.9973 30.3334Z" fill="#000006"/>
		<path d="M65.8577 44.1827C65.8577 44.3658 65.8216 44.5471 65.7516 44.7162C65.6815 44.8854 65.5788 45.0391 65.4494 45.1685C65.3199 45.298 65.1662 45.4007 64.9971 45.4707C64.828 45.5408 64.6467 45.5768 64.4636 45.5768H37.3746C37.1915 45.5768 37.0102 45.5408 36.8411 45.4707C36.6719 45.4007 36.5182 45.298 36.3888 45.1685C36.2593 45.0391 36.1566 44.8854 36.0866 44.7162C36.0165 44.5471 35.9805 44.3658 35.9805 44.1827V43.9517C35.9805 43.7686 36.0165 43.5874 36.0866 43.4182C36.1566 43.2491 36.2593 43.0954 36.3888 42.9659C36.5182 42.8365 36.6719 42.7338 36.8411 42.6637C37.0102 42.5937 37.1915 42.5576 37.3746 42.5576H64.4636C64.6467 42.5576 64.828 42.5937 64.9971 42.6637C65.1662 42.7338 65.3199 42.8365 65.4494 42.9659C65.5788 43.0954 65.6815 43.2491 65.7516 43.4182C65.8216 43.5874 65.8577 43.7686 65.8577 43.9517V44.1827Z" fill="#EE2327"/>
		<path d="M41.8439 52.8512C43.0934 52.8509 44.3213 53.178 45.4052 53.7998C46.489 54.4217 47.3911 55.3166 48.0215 56.3955H53.8158C54.7696 54.765 56.3295 53.5779 58.1552 53.0932C59.981 52.6085 61.9243 52.8655 63.5613 53.8082C64.1009 52.9416 64.3865 51.941 64.3857 50.9202V45.5762H37.4463V50.9136C37.4453 51.9347 37.7314 52.9354 38.272 53.8016C39.358 53.1753 40.5903 52.8474 41.8439 52.8512Z" fill="#000006"/>
		<path fill-rule="evenodd" clip-rule="evenodd" d="M41.8831 53.361C38.2212 53.361 35.2526 56.3296 35.2526 59.9915C35.2526 63.6534 38.2212 66.622 41.8831 66.622C45.545 66.622 48.5136 63.6534 48.5136 59.9915C48.5136 56.3296 45.545 53.361 41.8831 53.361ZM34.7275 59.9915C34.7275 56.0396 37.9312 52.8359 41.8831 52.8359C45.835 52.8359 49.0387 56.0396 49.0387 59.9915C49.0387 63.9434 45.835 67.1471 41.8831 67.1471C37.9312 67.1471 34.7275 63.9434 34.7275 59.9915Z" fill="black"/>
		<path fill-rule="evenodd" clip-rule="evenodd" d="M59.9954 53.361C56.3335 53.361 53.3649 56.3296 53.3649 59.9915C53.3649 63.6534 56.3335 66.622 59.9954 66.622C63.6573 66.622 66.6259 63.6534 66.6259 59.9915C66.6259 56.3296 63.6573 53.361 59.9954 53.361ZM52.8398 59.9915C52.8398 56.0396 56.0435 52.8359 59.9954 52.8359C63.9473 52.8359 67.151 56.0396 67.151 59.9915C67.151 63.9434 63.9473 67.1471 59.9954 67.1471C56.0435 67.1471 52.8398 63.9434 52.8398 59.9915Z" fill="black"/>
	</g>
	
	<defs>
		<filter id="filter0_d" x="0" y="-2.67029e-05" width="97.2026" height="110" filterUnits="userSpaceOnUse" color-interpolation-filters="sRGB">
			<feFlood flood-opacity="0" result="BackgroundImageFix"/>
			<feColorMatrix in="SourceAlpha" type="matrix" values="0 0 0 0 0 0 0 0 0 0 0 0 0 0 0 0 0 0 127 0"/>
			<feOffset/>
			<feGaussianBlur stdDeviation="7.5"/>
			<feColorMatrix type="matrix" values="0 0 0 0 0.933333 0 0 0 0 0.137255 0 0 0 0 0.152941 0 0 0 1 0"/>
			<feBlend mode="normal" in2="BackgroundImageFix" result="effect1_dropShadow"/>
			<feBlend mode="normal" in="SourceGraphic" in2="effect1_dropShadow" result="shape"/>
		</filter>
	</defs>
</svg>
